<?xml version="1.0" encoding="utf-8"?>
<!-- Generator: Adobe Illustrator 27.0.0, SVG Export Plug-In . SVG Version: 6.00 Build 0)  -->
<svg version="1.1" id="Layer_1" xmlns="http://www.w3.org/2000/svg" xmlns:xlink="http://www.w3.org/1999/xlink" x="0px" y="0px"
	 viewBox="0 0 220 120" style="enable-background:new 0 0 220 120;" xml:space="preserve">
<style type="text/css">
	.st0{fill:none;}
</style>
<g>
	<rect x="69.8" y="28.7" class="st0" width="80.4" height="80.4"/>
	<g>
		<rect x="50.1" class="st0" width="119.9" height="120"/>
		<g>
			<path d="M110,10c-27.6,0-49.9,22.4-49.9,50s22.3,50,49.9,50s49.9-22.4,49.9-50S137.6,10,110,10z M110,102.5
				c-23.5,0-42.5-19-42.5-42.5s19-42.5,42.5-42.5s42.5,19,42.5,42.5S133.5,102.5,110,102.5z M110,62.5c-15.2,0-27.5,8.6-27.5,17.5
				S94.8,97.5,110,97.5s27.5-8.6,27.5-17.5S125.2,62.5,110,62.5z M110,60c8.3,0,15-6.7,15-15s-6.7-15-15-15s-15,6.7-15,15
				S101.7,60,110,60z"/>
		</g>
	</g>
</g>
</svg>
