<?xml version="1.0" encoding="utf-8"?>
<!-- Generator: Adobe Illustrator 27.0.0, SVG Export Plug-In . SVG Version: 6.00 Build 0)  -->
<svg version="1.1" id="Layer_1" xmlns="http://www.w3.org/2000/svg" xmlns:xlink="http://www.w3.org/1999/xlink" x="0px" y="0px"
	 viewBox="0 0 220 120" style="enable-background:new 0 0 220 120;" xml:space="preserve">
<style type="text/css">
	.st0{fill-rule:evenodd;clip-rule:evenodd;}
</style>
<g>
	<g>
		<g>
			<path d="M108.61,71.77l10.64-23.28h-4.15l-10.64,23.28H108.61z"/>
			<path d="M108.44,55.91l3.39-7.42h-4.15l-3.35,7.34L108.44,55.91z"/>
			<path class="st0" d="M11.11,71.96c6.5,0,10-2.48,10-6.85c0-3.71-2.67-6.01-8-6.9l-3.71-0.6c-2.84-0.52-4.02-1.31-4.02-3.03
				c0-1.72,1.91-2.92,5.3-2.92h0.52c3.47,0,5.65,1.39,6.06,3.87h4.31c-0.44-4.62-4.26-7.5-10.59-7.5c-6.53,0-9.69,3.11-9.69,6.74
				c0,4.1,2.24,5.86,7.5,6.77l3.63,0.55c3.27,0.55,4.62,1.51,4.62,3.14c0,1.91-1.8,3.06-5.65,3.06h-0.52
				c-4.02,0-6.46-1.51-6.53-4.39H0C0.03,69.26,4.26,71.96,11.11,71.96z M45.91,71.64v-3.63H29.42v-6.58h14.19V57.8H29.42v-5.82H45.6
				v-3.63H25.3v23.23L45.91,71.64z M70.31,68.03v3.63H49.7V48.38h20.28v3.63H53.8v5.86h14.19v3.63H53.8v6.53L70.31,68.03
				L70.31,68.03z M85.08,71.64c7.37,0,12-4.34,12-11.63c0-7.26-4.67-11.63-12-11.63h-11v23.23h11V71.64z M78.2,68.03h6.58
				c5.46,0,8.21-2.71,8.21-8s-2.79-8-8.25-8h-6.58L78.2,68.03z"/>
			<path class="st0" d="M148.46,64.11c-0.76,4.62-4.94,7.86-11.36,7.86c-7.86,0-12.75-5.02-12.75-11.96
				c-0.08-6.77,5.14-12.04,12.75-11.96c6.58,0,10.68,3.55,11.36,7.86h-4.31c-0.6-2.67-3.39-4.23-6.77-4.23h-0.52
				c-5.18,0-8.41,3.66-8.41,8.33c0,4.7,3.22,8.33,8.41,8.33h0.52c3.47,0,6.09-1.47,6.77-4.23
				C144.15,64.11,148.46,64.11,148.46,64.11z M172.01,68.03v3.63h-19.89V48.38h4.1v19.6H172v0.05H172.01z M183.7,71.96
				c6.77,0,10.4-3.71,10.4-9.49V48.36h-4.07V62.2c0,3.99-2.11,6.14-6.06,6.14h-0.52c-3.95,0-6.06-2.15-6.06-6.14V48.36h-4.1v14.06
				C173.29,68.3,176.79,71.96,183.7,71.96z M220,65.31c0,3.82-3.27,6.3-7.37,6.3h-13.48V48.38h13.07c4.07,0,7.21,2.4,7.21,6.14
				c0,1.15-0.36,2.27-1,3.22c-0.68,0.96-1.59,1.67-2.67,2.07C218.17,60.33,220,62.41,220,65.31z M211.75,58.02h-8.49v-6.01h8.49
				c2.24,0,3.58,1.12,3.58,2.95C215.33,56.95,213.99,58.02,211.75,58.02L211.75,58.02z M203.27,68.03H212c2.43,0,3.9-1.23,3.9-3.27
				c0-2.03-1.47-3.06-3.9-3.06h-8.73V68.03z"/>
		</g>
	</g>
</g>
</svg>
