<?xml version="1.0" encoding="utf-8"?>
<!-- Generator: Adobe Illustrator 27.0.0, SVG Export Plug-In . SVG Version: 6.00 Build 0)  -->
<svg version="1.1" id="Layer_1" xmlns="http://www.w3.org/2000/svg" xmlns:xlink="http://www.w3.org/1999/xlink" x="0px" y="0px"
	 viewBox="0 0 220 120" style="enable-background:new 0 0 220 120;" xml:space="preserve">
<style type="text/css">
	.st0{fill-rule:evenodd;clip-rule:evenodd;}
</style>
<g>
	<g>
		<g>
			<path d="M108.96,70.57l10.05-21.99h-3.92l-10.05,21.99H108.96z"/>
			<path d="M108.77,55.69l3.24-7.1h-3.97l-3.21,7.03L108.77,55.69z"/>
			<path class="st0" d="M15.59,71.93c6.41,0,9.87-2.45,9.87-6.77c0-3.66-2.64-5.93-7.9-6.81l-3.66-0.59
				c-2.8-0.51-3.97-1.3-3.97-2.99s1.89-2.88,5.23-2.88h0.49l5.8,3.3h4.02c-0.41-4.37-4.04-7.11-10.04-7.11
				c-6.18,0-9.18,2.95-9.18,6.38c0,3.88,2.12,5.56,7.11,6.41l3.44,0.52c3.1,0.52,4.37,1.43,4.37,2.98c0,1.81-1.7,2.9-5.36,2.9h-0.5
				l-6.25-3.3H4.62C4.65,69.25,8.82,71.93,15.59,71.93z M48.34,70.62v-3.34H32.95v-6.6h13.19v-3.3H32.95v-5.5h15.39v-3.3H29.65
				v21.99L48.34,70.62z M72.52,67.27v3.3H52.73V48.58h18.69v3.3H57.13v5.5h13.19v3.3H57.13v6.6L72.52,67.27L72.52,67.27z
				 M86.81,70.6c7.37,0,12-4.11,12-11.01c0-6.87-4.66-11.01-12-11.01H75.82v21.99h10.99V70.6z M80.25,67.27h6.32
				c5.25,0,7.9-2.6,7.9-7.7s-2.68-7.7-7.93-7.7h-6.32L80.25,67.27z"/>
			<path class="st0" d="M146.85,63.98c-0.71,4.33-4.64,7.38-10.66,7.38c-7.38,0-11.97-4.71-11.97-11.22
				c-0.08-6.36,4.82-11.3,11.97-11.22c6.17,0,10.02,3.33,10.66,7.38h-3.62c-0.62-2.78-3.52-4.4-7.04-4.4h-0.08
				c-5.13,0-8.33,3.63-8.33,8.25c0,4.65,3.19,8.25,8.33,8.25h0.08c3.61,0,6.34-1.53,7.04-4.4
				C143.23,63.98,146.85,63.98,146.85,63.98z M170.37,67.27v3.3h-19.79V48.58h4.4v17.59h14.29v1.1H170.37z M181.36,71.18
				c6.44,0,9.89-3.55,9.89-9.09V48.58h-4.4v12.94c0,3.73-2.02,5.74-5.8,5.74h-0.5c-3.78,0-5.8-2.02-5.8-5.74V48.58h-3.3v13.46
				C171.47,67.68,174.79,71.18,181.36,71.18z M215.38,64.61c0,3.62-3.1,5.96-6.98,5.96h-12.76V48.58h12.37
				c3.85,0,6.82,2.27,6.82,5.81c0,1.09-0.34,2.15-0.95,3.05c-0.64,0.9-1.5,1.58-2.53,1.96C213.65,59.9,215.38,61.86,215.38,64.61z
				 M207.81,57.38h-7.76v-5.5h7.76c2.04,0,3.27,1.02,3.27,2.7C211.09,56.4,209.86,57.38,207.81,57.38L207.81,57.38z M200.05,67.27
				h9.09c2.53,0,4.07-1.28,4.07-3.41c0-2.11-1.54-3.19-4.07-3.19h-9.09V67.27z"/>
		</g>
	</g>
</g>
</svg>
