<?xml version="1.0" encoding="utf-8"?>
<!-- Generator: Adobe Illustrator 27.0.0, SVG Export Plug-In . SVG Version: 6.00 Build 0)  -->
<svg version="1.1" id="Layer_1" xmlns="http://www.w3.org/2000/svg" xmlns:xlink="http://www.w3.org/1999/xlink" x="0px" y="0px"
	 viewBox="0 0 220 120" style="enable-background:new 0 0 220 120;" xml:space="preserve">
<style type="text/css">
	.st0{fill:#032555;}
</style>
<g>
	<path class="st0" d="M65.21,63.78c0,0.62-0.11,1.14-0.29,1.61c-0.22,0.48-0.48,0.92-0.84,1.28s-0.77,0.7-1.25,0.95
		c-0.48,0.26-0.95,0.48-1.5,0.66s-1.06,0.29-1.65,0.37c-0.55,0.07-1.1,0.11-1.65,0.11c-1.17,0-2.24-0.04-3.23-0.15
		c-0.99-0.11-1.94-0.26-2.86-0.51v-2.75c0.99,0.29,2.02,0.51,3.01,0.66c0.99,0.15,1.98,0.22,2.97,0.22c1.43,0,2.49-0.18,3.19-0.59
		c0.7-0.4,1.03-0.95,1.03-1.65c0-0.29-0.04-0.59-0.15-0.84c-0.11-0.26-0.29-0.48-0.59-0.7s-0.73-0.44-1.32-0.7
		c-0.59-0.26-1.43-0.51-2.46-0.81c-0.77-0.22-1.5-0.48-2.16-0.77c-0.66-0.29-1.21-0.62-1.72-1.03c-0.48-0.4-0.84-0.88-1.14-1.39
		c-0.29-0.51-0.4-1.17-0.4-1.91c0-0.48,0.11-0.99,0.33-1.58c0.22-0.59,0.59-1.1,1.14-1.61c0.55-0.48,1.25-0.92,2.16-1.21
		c0.92-0.33,2.05-0.48,3.45-0.48c0.66,0,1.43,0.04,2.24,0.11c0.81,0.07,1.69,0.22,2.57,0.4v2.68c-0.95-0.22-1.83-0.4-2.68-0.51
		c-0.84-0.11-1.58-0.15-2.2-0.15c-0.73,0-1.36,0.07-1.87,0.18c-0.51,0.11-0.92,0.26-1.25,0.48c-0.33,0.18-0.55,0.44-0.66,0.7
		c-0.15,0.26-0.22,0.55-0.22,0.88s0.07,0.59,0.18,0.84c0.11,0.26,0.33,0.48,0.66,0.73c0.33,0.22,0.77,0.48,1.36,0.7
		c0.59,0.22,1.36,0.48,2.27,0.77c1.03,0.29,1.87,0.62,2.57,0.95c0.7,0.33,1.25,0.7,1.69,1.1s0.73,0.84,0.95,1.36
		C65.1,62.71,65.21,63.12,65.21,63.78z M86.83,51.24l-2.49,17.23h-3.63l-2.49-7.22l-0.51-1.76l-0.55,1.87l-2.38,7.11h-3.52
		l-2.49-17.23h2.93l1.43,11.69l0.29,2.6l0.73-2.27l2.49-7.73h2.16l2.68,7.62l0.77,2.27l0.26-2.42l1.39-11.77H86.83z M104.76,58.94
		c0,0.44,0,0.77,0,1.06s-0.04,0.55-0.04,0.81h-12.1c0,1.76,0.48,3.12,1.47,4.07c0.99,0.95,2.42,1.43,4.25,1.43
		c0.51,0,0.99-0.04,1.5-0.07c0.51-0.04,0.99-0.11,1.47-0.15c0.48-0.04,0.92-0.15,1.36-0.22c0.44-0.07,0.84-0.18,1.21-0.29v2.46
		c-0.81,0.22-1.72,0.4-2.75,0.55s-2.09,0.22-3.19,0.22c-1.47,0-2.75-0.18-3.81-0.59c-1.06-0.4-1.94-0.99-2.6-1.76
		c-0.7-0.77-1.17-1.69-1.5-2.79s-0.48-2.35-0.48-3.74c0-1.21,0.18-2.35,0.51-3.45c0.37-1.06,0.84-2.02,1.54-2.86
		c0.66-0.81,1.5-1.47,2.46-1.94c0.99-0.48,2.09-0.73,3.3-0.73c1.21,0,2.27,0.18,3.19,0.55c0.92,0.37,1.72,0.92,2.35,1.61
		c0.62,0.7,1.1,1.54,1.43,2.53C104.61,56.63,104.76,57.73,104.76,58.94z M101.64,58.53c0.04-0.77-0.04-1.47-0.22-2.09
		s-0.48-1.17-0.84-1.65c-0.37-0.44-0.84-0.81-1.43-1.06c-0.59-0.26-1.25-0.4-1.98-0.4c-0.66,0-1.25,0.11-1.8,0.37
		c-0.55,0.26-0.99,0.62-1.39,1.06c-0.4,0.44-0.7,0.99-0.95,1.65c-0.26,0.62-0.4,1.36-0.44,2.13L101.64,58.53L101.64,58.53z
		 M120.59,68.47l-0.07-2.31c-0.95,0.92-1.91,1.61-2.86,2.02c-0.95,0.4-1.98,0.62-3.04,0.62c-0.99,0-1.83-0.11-2.53-0.37
		c-0.7-0.26-1.28-0.59-1.72-1.03c-0.44-0.44-0.77-0.95-0.99-1.54c-0.22-0.59-0.33-1.25-0.33-1.94c0-1.72,0.66-3.08,1.94-4.07
		c1.28-0.99,3.19-1.47,5.72-1.47h3.56v-1.5c0-1.03-0.33-1.83-0.99-2.46c-0.66-0.62-1.65-0.92-2.97-0.92c-0.99,0-1.94,0.11-2.86,0.33
		c-0.95,0.22-1.91,0.51-2.93,0.92v-2.68c0.37-0.15,0.81-0.26,1.25-0.4c0.44-0.15,0.95-0.26,1.47-0.37c0.51-0.11,1.06-0.18,1.61-0.26
		c0.55-0.07,1.14-0.11,1.69-0.11c1.03,0,1.98,0.11,2.82,0.33c0.84,0.22,1.54,0.59,2.13,1.06c0.59,0.48,1.03,1.06,1.32,1.76
		c0.29,0.7,0.48,1.54,0.48,2.49v11.88H120.59z M120.26,60.62h-3.78c-0.73,0-1.39,0.07-1.91,0.22c-0.55,0.15-0.99,0.37-1.32,0.62
		c-0.33,0.26-0.59,0.59-0.77,0.99c-0.18,0.37-0.26,0.81-0.26,1.28c0,0.33,0.04,0.66,0.15,0.95c0.11,0.29,0.26,0.59,0.51,0.81
		c0.22,0.22,0.51,0.4,0.88,0.55s0.81,0.22,1.36,0.22c0.7,0,1.47-0.22,2.35-0.62c0.88-0.4,1.83-1.06,2.82-1.98v-3.04H120.26z
		 M142.73,68.21c-0.66,0.18-1.36,0.29-2.09,0.37c-0.73,0.07-1.47,0.11-2.2,0.11c-2.16,0-3.78-0.48-4.84-1.47s-1.61-2.49-1.61-4.51
		v-8.98h-4.84v-2.49h4.84v-4.73l2.97-0.77v5.5h7.73v2.49h-7.73v8.76c0,1.25,0.33,2.16,0.99,2.79c0.66,0.62,1.61,0.92,2.9,0.92
		c0.55,0,1.14-0.04,1.8-0.15c0.66-0.07,1.32-0.22,2.05-0.4v2.57H142.73z M161.54,67.84c-0.77,0.29-1.58,0.51-2.38,0.66
		c-0.81,0.15-1.65,0.22-2.53,0.22c-2.71,0-4.8-0.73-6.3-2.2c-1.5-1.47-2.2-3.63-2.2-6.45c0-1.36,0.22-2.6,0.62-3.7
		c0.4-1.1,1.03-2.05,1.8-2.86c0.77-0.81,1.69-1.39,2.75-1.83c1.06-0.44,2.24-0.66,3.52-0.66c0.88,0,1.72,0.07,2.49,0.18
		c0.77,0.11,1.54,0.33,2.24,0.62v2.86c-0.73-0.4-1.5-0.66-2.27-0.84c-0.77-0.18-1.58-0.26-2.38-0.26c-0.77,0-1.5,0.15-2.16,0.44
		s-1.28,0.7-1.8,1.25c-0.51,0.55-0.92,1.21-1.21,2.02c-0.29,0.81-0.44,1.69-0.44,2.68c0,2.09,0.51,3.63,1.5,4.69
		c1.03,1.03,2.42,1.54,4.22,1.54c0.81,0,1.61-0.07,2.35-0.26c0.77-0.18,1.5-0.44,2.2-0.81V67.84z M182.47,59.71
		c0,1.36-0.18,2.57-0.55,3.67c-0.37,1.1-0.92,2.05-1.61,2.86c-0.7,0.81-1.58,1.43-2.6,1.87s-2.16,0.66-3.48,0.66
		c-1.25,0-2.35-0.18-3.34-0.59c-0.99-0.37-1.8-0.95-2.49-1.69c-0.7-0.73-1.21-1.65-1.58-2.75c-0.37-1.1-0.55-2.35-0.55-3.78
		c0-1.36,0.18-2.57,0.55-3.67c0.37-1.1,0.92-2.05,1.61-2.86c0.7-0.81,1.58-1.43,2.6-1.87c1.03-0.44,2.16-0.66,3.48-0.66
		c1.25,0,2.35,0.18,3.34,0.59c0.99,0.37,1.8,0.95,2.49,1.69s1.21,1.65,1.58,2.75C182.32,57.03,182.47,58.31,182.47,59.71z
		 M179.42,59.85c0-1.06-0.11-1.98-0.37-2.79c-0.22-0.81-0.59-1.47-0.99-1.98s-0.95-0.92-1.58-1.21c-0.62-0.29-1.32-0.4-2.09-0.4
		c-0.88,0-1.65,0.18-2.27,0.51c-0.62,0.37-1.17,0.81-1.58,1.39c-0.4,0.59-0.7,1.25-0.88,2.02c-0.18,0.77-0.29,1.58-0.29,2.42
		c0,1.06,0.11,1.98,0.37,2.79c0.26,0.81,0.59,1.47,0.99,2.02c0.44,0.55,0.95,0.92,1.58,1.21c0.62,0.26,1.32,0.4,2.09,0.4
		c0.88,0,1.65-0.18,2.27-0.51c0.62-0.37,1.17-0.81,1.58-1.39c0.4-0.59,0.7-1.25,0.88-2.02C179.35,61.54,179.42,60.7,179.42,59.85z
		 M192.66,53.7h-5.09v-2.46h8.14v14.74h5.13v2.49h-13.82v-2.49h5.64V53.7z M193.72,44.02c0.33,0,0.62,0.07,0.92,0.18
		s0.55,0.29,0.73,0.51c0.22,0.22,0.37,0.48,0.51,0.73c0.11,0.29,0.18,0.59,0.18,0.92s-0.07,0.62-0.18,0.92s-0.29,0.55-0.51,0.77
		c-0.22,0.22-0.48,0.4-0.73,0.51c-0.29,0.11-0.59,0.18-0.92,0.18c-0.33,0-0.62-0.07-0.92-0.18s-0.55-0.29-0.73-0.51
		c-0.22-0.22-0.37-0.48-0.51-0.77c-0.15-0.29-0.18-0.59-0.18-0.92s0.07-0.62,0.18-0.92c0.11-0.29,0.29-0.51,0.51-0.73
		c0.22-0.22,0.48-0.4,0.73-0.51C193.1,44.09,193.39,44.02,193.72,44.02z M206.11,51.24h2.68l0.11,2.79c0.51-0.59,0.99-1.1,1.47-1.47
		c0.48-0.4,0.92-0.7,1.39-0.95c0.44-0.26,0.92-0.4,1.39-0.51c0.48-0.11,0.95-0.15,1.47-0.15c1.76,0,3.12,0.51,4.03,1.58
		c0.92,1.06,1.36,2.64,1.36,4.73v11.22h-2.97v-11c0-1.36-0.26-2.35-0.77-3.01c-0.51-0.66-1.25-0.95-2.24-0.95
		c-0.37,0-0.73,0.04-1.06,0.15c-0.37,0.11-0.7,0.29-1.1,0.55c-0.37,0.26-0.77,0.62-1.21,1.1c-0.44,0.44-0.95,1.03-1.47,1.72v11.44
		h-2.97V51.24H206.11z"/>
	<path class="st0" d="M20.53,78.66c2.53,0,4.95-0.48,7.26-1.47c2.2-0.92,4.22-2.27,5.94-4c1.72-1.72,3.04-3.7,4-5.94
		c0.99-2.31,1.47-4.73,1.47-7.26s-0.48-4.95-1.47-7.26c-0.95-2.2-2.27-4.22-4-5.94c-1.69-1.69-3.7-3.04-5.94-4
		c-2.31-0.95-4.77-1.47-7.26-1.47s-4.95,0.48-7.26,1.47c-2.2,0.92-4.22,2.27-5.94,4c-1.69,1.69-3.04,3.7-4,5.94
		C2.35,55.05,1.87,57.47,1.87,60s0.48,4.95,1.47,7.26c0.95,2.24,2.27,4.22,4,5.94c1.69,1.69,3.7,3.04,5.94,4
		C15.58,78.18,18.03,78.66,20.53,78.66L20.53,78.66z M20.53,80.53c-2.75,0-5.46-0.55-7.99-1.61c-2.42-1.03-4.66-2.53-6.52-4.4
		s-3.37-4.07-4.4-6.52C0.55,65.46,0,62.79,0,60s0.55-5.46,1.61-7.99c1.03-2.42,2.53-4.66,4.4-6.52c1.87-1.87,4.07-3.37,6.52-4.4
		c2.53-1.06,5.2-1.61,7.99-1.61s5.46,0.55,7.99,1.61c2.42,1.03,4.66,2.53,6.52,4.4c1.87,1.87,3.37,4.07,4.4,6.52
		c1.06,2.53,1.61,5.2,1.61,7.99s-0.55,5.46-1.61,7.99c-1.03,2.46-2.53,4.62-4.4,6.52c-1.87,1.87-4.07,3.37-6.52,4.4
		C25.99,79.98,23.31,80.53,20.53,80.53z M20.23,70.26c-2.6-0.15-4.44-1.03-6.01-2.42l1.39-1.43l0.07,0.04
		c1.43,1.17,3.3,1.91,5.42,1.83c3.26-0.15,5.35-1.94,5.68-4.11c0.33-2.2-0.7-4.22-3.63-4.88c-0.73-0.15-1.32-0.18-2.53-0.18
		c-0.92,0-1.28-0.04-1.72-0.11c-2.02-0.37-2.57-1.43-2.38-2.79c0.18-1.25,1.5-2.42,3.89-2.53c1.61-0.07,3.04,0.51,4.18,1.43
		l0.51,0.4l0.18,0.15l0.66,0.59l3.96-4.03l-0.66-0.66c-0.07-0.07-0.18-0.18-0.37-0.37c-1.98-1.83-4.25-3.08-7.55-3.26
		c-2.13-0.11-4.18,0.29-5.86,1.1c-0.55,0.26-1.06,0.59-1.58,0.95c-0.55,0.4-1.1,0.84-1.58,1.32c-0.29,0.29-0.48,0.51-0.59,0.62
		l1.47,1.17c0,0,0.04-0.04,0.11-0.11c0.11-0.11,0.22-0.26,0.33-0.37c0.37-0.37,0.84-0.77,1.32-1.14c0.4-0.29,0.84-0.55,1.32-0.81
		c1.36-0.66,3.12-1.03,4.91-0.92c2.6,0.15,4.44,1.03,6.01,2.42l-1.39,1.43l-0.07-0.04c-1.43-1.17-3.3-1.91-5.42-1.83
		c-3.26,0.15-5.35,1.94-5.68,4.11c-0.33,2.27,0.77,4.36,3.89,4.91c0.59,0.11,1.03,0.11,2.05,0.11c1.1,0,1.58,0.04,2.16,0.15
		c1.83,0.4,2.38,1.43,2.16,2.75c-0.18,1.25-1.5,2.42-3.89,2.53c-1.61,0.07-3.04-0.51-4.18-1.43l-0.51-0.4l-0.18-0.15l-0.66-0.59
		l-3.96,4.03l0.66,0.66c0.07,0.07,0.18,0.18,0.37,0.37c1.98,1.83,4.25,3.08,7.55,3.26c2.13,0.11,4.18-0.29,5.86-1.14
		c0.55-0.26,1.06-0.59,1.58-0.95c0.55-0.4,1.1-0.84,1.58-1.32c0.29-0.29,0.48-0.51,0.59-0.62l-1.47-1.17c0,0-0.04,0.04-0.11,0.11
		c-0.11,0.11-0.22,0.26-0.33,0.37c-0.37,0.37-0.84,0.77-1.32,1.14c-0.4,0.29-0.84,0.55-1.32,0.81
		C23.79,70.01,22.07,70.37,20.23,70.26z"/>
</g>
</svg>
