<?xml version="1.0" encoding="utf-8"?>
<!-- Generator: Adobe Illustrator 27.0.0, SVG Export Plug-In . SVG Version: 6.00 Build 0)  -->
<svg version="1.1" id="Layer_1" xmlns="http://www.w3.org/2000/svg" xmlns:xlink="http://www.w3.org/1999/xlink" x="0px" y="0px"
	 viewBox="0 0 220 120" style="enable-background:new 0 0 220 120;" xml:space="preserve">
<style type="text/css">
	.st0{fill:#032555;}
</style>
<g>
	<path class="st0" d="M66.04,63.62c0,0.6-0.11,1.09-0.28,1.55c-0.21,0.46-0.46,0.88-0.81,1.23c-0.35,0.35-0.74,0.67-1.2,0.91
		c-0.46,0.25-0.91,0.46-1.44,0.63c-0.53,0.18-1.02,0.28-1.58,0.35c-0.53,0.07-1.05,0.11-1.58,0.11c-1.13,0-2.15-0.04-3.09-0.14
		c-0.95-0.11-1.86-0.25-2.74-0.49v-2.64c0.95,0.28,1.93,0.49,2.88,0.63c0.95,0.14,1.9,0.21,2.85,0.21c1.37,0,2.39-0.18,3.06-0.56
		s0.98-0.91,0.98-1.58c0-0.28-0.04-0.56-0.14-0.81c-0.11-0.25-0.28-0.46-0.56-0.67c-0.28-0.21-0.7-0.42-1.27-0.67
		c-0.56-0.25-1.37-0.49-2.36-0.77c-0.74-0.21-1.44-0.46-2.07-0.74c-0.63-0.28-1.16-0.6-1.65-0.98c-0.46-0.39-0.81-0.84-1.09-1.34
		c-0.28-0.49-0.39-1.13-0.39-1.83c0-0.46,0.11-0.95,0.32-1.51c0.21-0.56,0.56-1.05,1.09-1.55c0.53-0.46,1.2-0.88,2.07-1.16
		c0.88-0.32,1.97-0.46,3.31-0.46c0.63,0,1.37,0.04,2.15,0.11c0.77,0.07,1.62,0.21,2.46,0.39v2.57c-0.91-0.21-1.76-0.39-2.57-0.49
		s-1.51-0.14-2.11-0.14c-0.7,0-1.3,0.07-1.79,0.18s-0.88,0.25-1.2,0.46c-0.32,0.18-0.53,0.42-0.63,0.67
		c-0.14,0.25-0.21,0.53-0.21,0.84s0.07,0.56,0.18,0.81c0.11,0.25,0.32,0.46,0.63,0.7c0.32,0.21,0.74,0.46,1.3,0.67
		c0.56,0.21,1.3,0.46,2.18,0.74c0.98,0.28,1.79,0.6,2.46,0.91s1.2,0.67,1.62,1.06c0.42,0.39,0.7,0.81,0.91,1.3
		C65.93,62.6,66.04,62.99,66.04,63.62z M87.35,51.79L84.9,68.72h-3.57l-2.45-7.1l-0.5-1.73l-0.54,1.84l-2.34,6.99h-3.46l-2.45-16.93
		h2.86l1.41,11.54l0.29,2.57l0.72-2.24l2.46-7.63h2.13l2.64,7.52l0.76,2.24l0.25-2.39l1.37-11.61H87.35z M105.16,58.96V60
		c-0.42,0.29-0.45,0.54-0.45,1.31H92.92c0,1.19,0.46,2.51,1.43,3.44c0.96,0.93,2.36,1.39,4.14,1.39c0.5,0,0.96-0.04,1.46-0.07
		c0.5-0.04,0.96-0.11,1.43-0.14c0.46-0.04,0.89-0.14,1.32-0.21c0.43-0.07,0.82-0.18,1.4-0.29v2.39c-1,0.21-1.9,0.39-2.9,0.54
		c-1,0.14-2.04,0.21-3.11,0.21c-1.43,0-2.68-0.18-3.71-0.57s-1.89-0.96-2.54-1.71c-0.68-0.75-1.14-1.64-1.46-2.71
		s-0.46-2.29-0.46-3.64c0-1.18,0.18-2.29,0.5-3.36c0.36-1.04,0.82-1.96,1.5-2.79c0.64-0.79,1.46-1.43,2.39-1.89
		c0.96-0.46,2.04-0.71,3.21-0.71c1.18,0,2.21,0.18,3.11,0.54c0.89,0.36,1.68,0.89,2.29,1.57c0.61,0.68,1.07,1.5,1.39,2.46
		C104.6,56.71,104.74,57.79,105.16,58.96z M101.71,58.13c0.04-0.75-0.04-1.43-0.21-2.04c-0.18-0.61-0.46-1.14-0.82-1.61
		c-0.36-0.43-0.82-0.79-1.39-1.04c-0.57-0.25-1.21-0.39-1.93-0.39c-0.64,0-1.21,0.11-1.75,0.36c-0.54,0.25-0.96,0.61-1.36,1.04
		c-0.39,0.43-0.68,0.96-0.93,1.61c-0.25,0.61-0.39,1.32-0.43,2.07L101.71,58.13L101.71,58.13z M120.49,67.66l-0.07-2.18
		c-0.95,0.87-1.9,1.52-2.85,1.9s-1.97,0.59-3.03,0.59c-0.99,0-1.82-0.1-2.52-0.35c-0.69-0.24-1.28-0.55-1.72-0.97
		c-0.44-0.42-0.77-0.9-0.99-1.45c-0.22-0.55-0.33-1.18-0.33-1.84c0-1.63,0.66-2.91,1.93-3.84c1.28-0.94,3.17-1.39,5.69-1.39h3.36
		v-1.46c0-1-0.32-1.79-0.97-2.39c-0.64-0.61-1.61-0.89-2.9-0.89c-0.97,0-1.9,0.11-2.79,0.32c-0.93,0.21-1.86,0.5-2.86,0.89v-2.42
		c0.36-0.14,0.8-0.24,1.24-0.38c0.44-0.14,0.95-0.24,1.46-0.35c0.51-0.1,1.06-0.17,1.61-0.24s1.13-0.1,1.68-0.1
		c1.02,0,1.97,0.1,2.81,0.31c0.84,0.21,1.53,0.55,2.12,1s1.02,1,1.31,1.66c0.29,0.66,0.47,1.45,0.47,2.35v11.22H120.49z
		 M119.94,60.25h-3.68c-0.71,0-1.36,0.07-1.86,0.21c-0.54,0.14-0.96,0.36-1.29,0.61c-0.32,0.25-0.57,0.57-0.75,0.96
		c-0.18,0.36-0.25,0.79-0.25,1.25c0,0.32,0.04,0.64,0.14,0.93c0.11,0.29,0.25,0.57,0.5,0.79c0.21,0.21,0.5,0.39,0.86,0.54
		c0.36,0.14,0.79,0.21,1.32,0.21c0.68,0,1.43-0.21,2.29-0.61c0.86-0.39,1.79-1.04,2.75-1.93v-2.96H119.94z M141.74,67.66
		c-0.64,0.52-1.32,0.63-2.04,0.7s-1.43,0.11-2.14,0.11c-2.11,0-3.68-0.46-4.71-1.43c-1.04-0.96-2.29-4.39-2.29-4.39V53.9h-4.23
		v-2.12h5.29v-4.61l3.17-0.75v5.36h7.41v2.12h-7.41v8.53c-0.62,1.21-0.3,2.11,0.35,2.71c0.64,0.61,1.57,0.89,2.82,0.89
		c0.54,0,1.11-0.04,1.75-0.14c0.64-0.07,2.49-0.39,2.49-0.39v2.16H141.74z M160.19,67.64c-0.75,0.29-1.54,0.5-2.32,0.64
		c-0.79,0.14-1.61,0.21-2.46,0.21c-2.64,0-4.68-0.71-6.14-2.14c-1.46-1.43-2.14-3.54-2.14-6.29c0-1.32,0.21-2.54,0.61-3.61
		c0.39-1.07,1-2,1.75-2.79c0.75-0.79,1.64-1.36,2.68-1.79c1.04-0.43,2.18-0.64,3.43-0.64c0.86,0,1.68,0.07,2.43,0.18
		c0.75,0.11,1.5,0.32,2.18,0.61v2.79c-0.71-0.39-1.46-0.64-2.21-0.82c-0.75-0.18-1.54-0.25-2.32-0.25c-0.75,0-1.46,0.14-2.11,0.43
		s-1.25,0.68-1.75,1.21c-0.5,0.54-0.89,1.18-1.18,1.96c-0.29,0.79-0.43,1.64-0.43,2.61c0,2.04,0.5,3.54,1.46,4.57
		c1,1,2.36,1.5,4.11,1.5c0.79,0,1.57-0.07,2.29-0.25c0.75-0.18,1.46-0.43,2.14-0.79V67.64z M180.46,59.71c0,1.32-0.18,2.5-0.54,3.57
		c-0.36,1.07-0.89,2-1.57,2.79c-0.68,0.79-1.54,1.39-2.54,1.82c-1,0.43-2.11,0.64-3.39,0.64c-1.21,0-2.29-0.18-3.25-0.57
		c-0.96-0.36-1.75-0.93-2.43-1.64c-0.68-0.71-1.18-1.61-1.54-2.68c-0.36-1.07-0.54-2.29-0.54-3.68c0-1.32,0.18-2.5,0.54-3.57
		c0.36-1.07,0.89-2,1.57-2.79c0.68-0.79,1.54-1.39,2.54-1.82c1-0.43,2.11-0.64,3.39-0.64c1.21,0,2.29,0.18,3.25,0.57
		c0.96,0.36,1.75,0.93,2.43,1.64c0.68,0.71,1.18,1.61,1.54,2.68C180.31,57.11,180.46,58.36,180.46,59.71z M177.49,59.86
		c0-1.04-0.11-1.93-0.36-2.71c-0.21-0.79-0.57-1.43-0.96-1.93c-0.39-0.5-0.93-0.89-1.54-1.18c-0.61-0.29-1.29-0.39-2.04-0.39
		c-0.86,0-1.61,0.18-2.21,0.5c-0.61,0.36-1.14,0.79-1.54,1.36c-0.39,0.57-0.68,1.21-0.86,1.96s-0.29,1.54-0.29,2.36
		c0,1.04,0.11,1.93,0.36,2.71c0.25,0.79,0.57,1.43,0.96,1.96c0.43,0.54,0.93,0.89,1.54,1.18c0.61,0.25,1.29,0.39,2.04,0.39
		c0.86,0,1.61-0.18,2.21-0.5c0.61-0.36,1.14-0.79,1.54-1.36c0.39-0.57,0.68-1.21,0.86-1.96C177.42,61.5,177.49,60.68,177.49,59.86z
		 M190.87,53.9h-5.29v-3.17h7.41v14.81h5.29v2.12h-13.76v-2.12h6.35V53.9z M191.42,44.43c0.32,0,0.61,0.07,0.89,0.18
		c0.29,0.11,0.54,0.29,0.71,0.5c0.21,0.21,0.36,0.46,0.5,0.71c0.11,0.29,0.18,0.57,0.18,0.89s-0.07,0.61-0.18,0.89
		c-0.11,0.29-0.29,0.54-0.5,0.75c-0.21,0.21-0.46,0.39-0.71,0.5c-0.29,0.11-0.57,0.18-0.89,0.18s-0.61-0.07-0.89-0.18
		c-0.29-0.11-0.54-0.29-0.71-0.5c-0.21-0.21-0.36-0.46-0.5-0.75c-0.14-0.29-0.18-0.57-0.18-0.89s0.07-0.61,0.18-0.89
		c0.11-0.29,0.29-0.5,0.5-0.71c0.21-0.21,0.46-0.39,0.71-0.5C190.81,44.5,191.1,44.43,191.42,44.43z M203.46,51.79h2.67l0.11,2.74
		c0.51-0.58,0.99-1.08,1.46-1.44c0.48-0.4,0.91-0.68,1.39-0.94c0.44-0.25,0.91-0.4,1.39-0.5c0.48-0.11,0.95-0.14,1.46-0.14
		c1.76,0,3.11,0.5,4.02,1.55c0.91,1.04,1.35,2.59,1.35,4.65v11.02h-3.17V58c0-1.32-0.24-2.29-0.73-2.93
		c-0.48-0.64-1.18-0.93-2.11-0.93c-0.35,0-0.69,0.04-1,0.14c-0.35,0.11-0.66,0.29-1.04,0.54c-0.35,0.25-0.73,0.61-1.14,1.07
		c-0.42,0.43-0.9,1-1.38,1.68v11.14h-3.17V51.79H203.46z"/>
	<path class="st0" d="M22.67,78.18c2.46,0,4.82-0.46,7.07-1.43c2.14-0.89,4.11-2.21,5.79-3.89c1.68-1.68,2.96-3.61,3.89-5.79
		c0.96-2.25,1.43-4.61,1.43-7.07c0-2.46-0.46-4.82-1.43-7.07c-0.93-2.14-2.21-4.11-3.89-5.79c-1.64-1.64-3.61-2.96-5.79-3.89
		c-2.25-0.93-4.64-1.43-7.07-1.43s-4.82,0.46-7.07,1.43c-2.14,0.89-4.11,2.21-5.79,3.89c-1.64,1.64-2.96,3.61-3.89,5.79
		C4.96,55.18,4.49,57.54,4.49,60c0,2.46,0.46,4.82,1.43,7.07c0.93,2.18,2.21,4.11,3.89,5.79c1.64,1.64,3.61,2.96,5.79,3.89
		C17.85,77.71,20.24,78.18,22.67,78.18L22.67,78.18z M22.67,80c-2.68,0-5.32-0.54-7.79-1.57c-2.36-1-4.54-2.46-6.36-4.29
		c-1.82-1.82-3.29-3.96-4.29-6.36C3.21,65.32,2.67,62.71,2.67,60s0.54-5.32,1.57-7.79c1-2.36,2.46-4.54,4.29-6.36
		c1.82-1.82,3.96-3.29,6.36-4.29c2.46-1.04,5.07-1.57,7.79-1.57s5.32,0.54,7.79,1.57c2.36,1,4.54,2.46,6.36,4.29
		c1.82,1.82,3.29,3.96,4.29,6.36c1.04,2.46,1.57,5.07,1.57,7.79s-0.54,5.32-1.57,7.79c-1,2.39-2.46,4.5-4.29,6.36
		c-1.82,1.82-3.96,3.29-6.36,4.29C27.99,79.46,25.39,80,22.67,80z M22.39,70c-2.54-0.14-4.32-1-5.86-2.36l1.36-1.39l0.07,0.04
		c1.39,1.14,3.21,1.86,5.29,1.79c3.18-0.14,5.21-1.89,5.54-4c0.32-2.14-0.68-4.11-3.54-4.75c-0.71-0.14-1.29-0.18-2.46-0.18
		c-0.89,0-1.25-0.04-1.68-0.11c-1.96-0.36-2.5-1.39-2.32-2.71c0.18-1.21,1.46-2.36,3.79-2.46c1.57-0.07,2.96,0.5,4.07,1.39l0.5,0.39
		l0.18,0.14l0.64,0.57l3.86-3.93l-0.64-0.64c-0.07-0.07-0.18-0.18-0.36-0.36c-1.93-1.79-4.14-3-7.36-3.18
		c-2.07-0.11-4.07,0.29-5.71,1.07c-0.54,0.25-1.04,0.57-1.54,0.93c-0.54,0.39-1.07,0.82-1.54,1.29c-0.29,0.29-0.46,0.5-0.57,0.61
		l1.43,1.14c0,0,0.04-0.04,0.11-0.11c0.11-0.11,0.21-0.25,0.32-0.36c0.36-0.36,0.82-0.75,1.29-1.11c0.39-0.29,0.82-0.54,1.29-0.79
		c1.32-0.64,3.04-1,4.79-0.89c2.54,0.14,4.32,1,5.86,2.36l-1.36,1.39l-0.07-0.04c-1.39-1.14-3.21-1.86-5.29-1.79
		c-3.18,0.14-5.21,1.89-5.54,4c-0.32,2.21,0.75,4.25,3.79,4.79c0.57,0.11,1,0.11,2,0.11c1.07,0,1.54,0.04,2.11,0.14
		c1.79,0.39,2.32,1.39,2.11,2.68c-0.18,1.21-1.46,2.36-3.79,2.46c-1.57,0.07-2.96-0.5-4.07-1.39l-0.5-0.39l-0.18-0.14l-0.64-0.57
		l-3.86,3.93l0.64,0.64c0.07,0.07,0.18,0.18,0.36,0.36c1.93,1.79,4.14,3,7.36,3.18c2.07,0.11,4.07-0.29,5.71-1.11
		c0.54-0.25,1.04-0.57,1.54-0.93c0.54-0.39,1.07-0.82,1.54-1.29c0.29-0.29,0.46-0.5,0.57-0.61l-1.43-1.14c0,0-0.04,0.04-0.11,0.11
		c-0.11,0.11-0.21,0.25-0.32,0.36c-0.36,0.36-0.82,0.75-1.29,1.11c-0.39,0.29-0.82,0.54-1.29,0.79C25.85,69.75,24.17,70.11,22.39,70
		z"/>
</g>
</svg>
