<?xml version="1.0" encoding="utf-8"?>
<!-- Generator: Adobe Illustrator 27.0.0, SVG Export Plug-In . SVG Version: 6.00 Build 0)  -->
<svg version="1.1" id="Layer_1" xmlns="http://www.w3.org/2000/svg" xmlns:xlink="http://www.w3.org/1999/xlink" x="0px" y="0px"
	 viewBox="0 0 220 120" style="enable-background:new 0 0 220 120;" xml:space="preserve">
<style type="text/css">
	.st0{fill:#7857ED;}
</style>
<g>
	<path class="st0" d="M7.17,71.95h4.13V53.4h7.14v-3.35H0v3.35h7.17V71.95z M27.73,68.73h0.06v0.66c0,1.63,1.03,2.57,2.91,2.57h2.69
		v-3.22h-0.66c-0.84,0-1.16-0.31-1.16-1.16v-7.39c0-3.47-2.07-5.98-7.29-5.98c-5.16,0-7.57,2.41-7.82,6.1h4.13
		c0.13-1.91,1.53-2.97,3.76-2.97c1.85,0,3.29,0.75,3.29,2.32c0,1.19-0.78,1.88-2.5,1.88h-2.79c-3.41,0-6.54,1.5-6.54,5.45
		c0,3.6,2.6,5.51,5.95,5.51C24.41,72.49,26.63,71.3,27.73,68.73z M20.03,66.82c0-1.35,0.88-2.38,2.94-2.44l1.28-0.06
		c1.78-0.06,2.79-0.59,3.32-1.66h0.06v1.6c0,3.57-2.32,5.04-4.66,5.04C20.91,69.29,20.03,68.17,20.03,66.82z M35.38,71.95h3.94
		V47.51h-3.94V71.95z M50.28,72.49c4.26,0,7.26-2.38,8.01-5.82h-4.07c-0.53,1.66-1.97,2.69-3.88,2.69c-2.63,0-4.29-1.94-4.41-4.88
		h12.58v-1.78c0-5.54-3.54-8.48-8.26-8.48c-4.98,0-8.51,3.41-8.51,9.14C41.73,69.04,45.18,72.49,50.28,72.49z M45.96,61.63
		c0.25-2.41,1.66-4.29,4.38-4.29c2.69,0,4.19,1.78,4.19,4.29H45.96z M60.88,71.95h3.94V62.1c0-3.44,1.94-4.73,3.91-4.73
		c1.94,0,3.25,1.25,3.25,4.26v10.33h3.94v-10.8c0-4.57-2.32-6.95-5.82-6.95c-2.38,0-4.26,1.13-5.29,3.16h-0.06v-2.63h-3.88V71.95z
		 M85.2,71.95h4.57v-3.22h-3.22c-1.31,0-2.07-0.56-2.07-2.03v-8.73h5.19v-3.22h-5.19v-4.69h-3.97v4.69h-3.32v3.22h3.32v9.33
		C80.51,70.42,82.13,71.95,85.2,71.95z M98.27,71.95h4.13v-8.26h5.73c4.38,0,7.54-2.44,7.54-6.79c0-4.32-3.16-6.85-7.54-6.85h-9.86
		V71.95z M102.4,60.34V53.4h4.85c2.57,0,4.16,1.38,4.16,3.5c0,2.13-1.6,3.44-4.16,3.44H102.4z M117.88,71.95h3.94v-9.89
		c0-2.82,1.1-4.1,3.47-4.1h2.38v-3.22h-1.66c-2.28,0-3.38,1-4.19,2.72h-0.06v-2.72h-3.88V71.95z M136.63,72.49
		c4.85,0,8.73-3.25,8.73-9.14s-3.88-9.14-8.73-9.14s-8.73,3.25-8.73,9.14S131.78,72.49,136.63,72.49z M132.12,63.35
		c0-3.97,1.78-6.01,4.51-6.01s4.51,2.03,4.51,6.01s-1.78,6.01-4.51,6.01S132.12,67.32,132.12,63.35z M153.74,71.95h4.57v-3.22h-3.22
		c-1.31,0-2.07-0.56-2.07-2.03v-8.73h5.19v-3.22h-5.19v-4.69h-3.97v4.69h-3.32v3.22h3.32v9.33
		C149.05,70.42,150.68,71.95,153.74,71.95z M167.57,72.49c4.85,0,8.73-3.25,8.73-9.14s-3.88-9.14-8.73-9.14s-8.73,3.25-8.73,9.14
		S162.72,72.49,167.57,72.49z M163.07,63.35c0-3.97,1.78-6.01,4.51-6.01s4.51,2.03,4.51,6.01s-1.78,6.01-4.51,6.01
		S163.07,67.32,163.07,63.35z M186.7,72.49c4.79,0,7.57-3.07,8.07-6.76h-4.07c-0.22,1.63-1.47,3.63-4.01,3.63
		c-2.72,0-4.51-2.28-4.51-6.01c0-3.5,1.53-6.01,4.51-6.01c2.6,0,3.85,1.85,4.01,3.97h4.07c-0.38-4.04-3.13-7.1-8.07-7.1
		c-5.48,0-8.73,3.6-8.73,9.14S181.47,72.49,186.7,72.49z M204.9,72.49c4.85,0,8.73-3.25,8.73-9.14s-3.88-9.14-8.73-9.14
		c-4.85,0-8.73,3.25-8.73,9.14S200.05,72.49,204.9,72.49z M200.4,63.35c0-3.97,1.78-6.01,4.51-6.01c2.72,0,4.51,2.03,4.51,6.01
		s-1.78,6.01-4.51,6.01C202.18,69.36,200.4,67.32,200.4,63.35z M216.06,71.95H220V47.51h-3.94V71.95z"/>
</g>
</svg>
