<?xml version="1.0" encoding="utf-8"?>
<!-- Generator: Adobe Illustrator 27.0.0, SVG Export Plug-In . SVG Version: 6.00 Build 0)  -->
<svg version="1.1" id="Layer_1" xmlns="http://www.w3.org/2000/svg" xmlns:xlink="http://www.w3.org/1999/xlink" x="0px" y="0px"
	 viewBox="0 0 220 120" style="enable-background:new 0 0 220 120;" xml:space="preserve">
<style type="text/css">
	.st0{fill:#7857ED;}
</style>
<g>
	<path class="st0" d="M7.5,71.86h4v-18h7v-4h-18v4h7V71.86z M27.97,67.86h0.53v1.19c-0.33,1.62,2.57,2.81,2.57,2.81h2.43v-3h-0.41
		c-0.84-0.46-1.59-1.62-1.59-1.62v-7.35c0,0-1.62-5.95-6.82-5.95c-5.14,0-7.54,2.4-7.79,5.92H21c0.12-1.74,1.53-2.8,3.74-2.8
		c1.84,0,3.27,0.75,3.27,2.31c0,1.18-2.49,1.5-2.49,1.5h-2.79c-3.32,0-6.36,1.46-6.36,5.3c0,3.5,2.53,5.36,5.78,5.36
		C24.74,71.51,26.9,70.36,27.97,67.86z M20.93,66.01c0-1.34,0.87-2.37,2.93-2.43l1.28-0.06c1.78-0.06,2.77-0.59,3.3-1.65h0.06v1.59
		c0,3.55-2.31,5.02-4.64,5.02C21.8,68.47,20.93,67.35,20.93,66.01z M35.5,71.86h4v-24h-4V71.86z M50.99,71.18
		c3.89,0,6.63-2.17,7.31-5.31h-3.71c-0.49,1.51-1.8,2.46-3.54,2.46c-2.4,0-3.91-1.77-4.03-4.46H58.5v-1.63
		c0-5.06-3.23-7.74-7.54-7.74c-4.54,0-7.77,3.11-7.77,8.34C43.19,68.03,46.33,71.18,50.99,71.18z M46.26,60.86
		c0.25-2.4,1.65-4.27,4.36-4.27c2.68,0,4.18,1.78,4.18,4.27H46.26z M61.5,71.86h4v-9.81c0-3.43,1.9-4.7,3.82-4.7
		c1.9,0,3.18,1.25,3.18,4.24v10.28h4V60.76c0-4.7-2.28-7.15-5.73-7.15c-2.34,0-4.19,1.16-5.21,3.25H65.5v-2h-4V71.86z M84.75,71.86
		h4.75v-3h-3.01c-1.27,0-1.99-0.58-1.99-2.08v-8.92h5v-3h-5v-5h-4v5h-3v3h3v9.33C80.5,70.33,81.97,71.86,84.75,71.86z M98.5,71.86h4
		v-8h5.88c4.5,0,7.74-2.5,7.74-6.97c0-4.43-3.24-7.03-7.74-7.03H98.5V71.86z M102.5,59.86v-7h4.89c2.59,0,4.19,1.39,4.19,3.53
		c0,2.14-1.61,3.47-4.19,3.47H102.5z M117.5,71.86h4v-9.9c0-2.82,1.12-4.1,3.56-4.1h2.44v-4h-1.54c-2.27,0.61-3.36,1.61-4.18,3
		h-0.29v-2h-4V71.86z M136.53,72.14c4.83,0,8.69-3.24,8.69-9.1s-3.86-9.1-8.69-9.1s-8.69,3.24-8.69,9.1S131.7,72.14,136.53,72.14z
		 M132.05,63.04c0-3.96,1.78-5.98,4.49-5.98s4.49,2.03,4.49,5.98s-1.78,5.98-4.49,5.98S132.05,67,132.05,63.04z M152.75,71.86h5.75
		v-3h-4.01c-1.27,0-1.99-0.58-1.99-2.08v-8.92h5v-3h-5v-5h-4v5h-3v3h3v9.33C148.5,70.33,149.97,71.86,152.75,71.86z M167.34,72.14
		c4.83,0,8.69-3.24,8.69-9.1s-3.86-9.1-8.69-9.1c-4.83,0-8.69,3.24-8.69,9.1S162.51,72.14,167.34,72.14z M162.85,63.04
		c0-3.96,1.78-5.98,4.49-5.98s4.49,2.03,4.49,5.98s-1.78,5.98-4.49,5.98S162.85,67,162.85,63.04z M186.35,70.99
		c4.34,0,6.87-2.78,7.32-6.13h-3.69c-0.2,1.48-1.33,3.29-3.63,3.29c-2.47,0-4.09-2.07-4.09-5.45c0-3.18,1.39-5.45,4.09-5.45
		c2.35,0,3.49,1.67,3.63,3.6h3.69c-0.34-3.66-2.84-6.44-7.32-6.44c-4.96,0-7.91,3.26-7.91,8.28S181.61,70.99,186.35,70.99z
		 M204.51,72.14c4.83,0,8.69-3.24,8.69-9.1s-3.86-9.1-8.69-9.1c-4.83,0-8.69,3.24-8.69,9.1S199.68,72.14,204.51,72.14z
		 M200.02,63.04c0-3.96,1.78-5.98,4.49-5.98c2.71,0,4.49,2.03,4.49,5.98s-1.78,5.98-4.49,5.98C201.8,69.02,200.02,67,200.02,63.04z
		 M215.5,71.86h4v-24h-4V71.86z"/>
</g>
</svg>
