<?xml version="1.0" encoding="utf-8"?>
<!-- Generator: Adobe Illustrator 27.0.0, SVG Export Plug-In . SVG Version: 6.00 Build 0)  -->
<svg version="1.1" id="Layer_1" xmlns="http://www.w3.org/2000/svg" xmlns:xlink="http://www.w3.org/1999/xlink" x="0px" y="0px"
	 viewBox="0 0 220 120" style="enable-background:new 0 0 220 120;" xml:space="preserve">
<style type="text/css">
	.st0{fill:#4C7064;}
	.st1{fill-rule:evenodd;clip-rule:evenodd;fill:#4C7064;}
</style>
<g>
	<path class="st0" d="M107.07,74.34c7.33,0,12.52-4.46,12.52-12.29V44.38h-6v17.46c0,4.8-2.55,7.45-6.48,7.45
		c-3.89,0-6.52-2.69-6.52-7.49V44.38h-6V62.1C94.6,69.97,99.71,74.34,107.07,74.34z"/>
	<path class="st0" d="M131.43,74.09c1.78,0,2.67,0,4.17-0.08v-4.63h-2.58c-1.71,0-2.42-0.38-2.42-2.69V56.38h5v-4h-5v-5h-5v5h-4v4h4
		V68.2C125.6,73,127.86,74.09,131.43,74.09z"/>
	<path class="st0" d="M149.29,74.52c6.31,0,11.45-4.5,11.45-11.49c0-6.94-5.09-11.28-11.45-11.28c-6.31,0-11.49,4.42-11.49,11.28
		C137.81,70.1,142.9,74.52,149.29,74.52z M149.29,69.97c-3.54,0-5.93-2.82-5.93-6.94c0-4,2.36-6.73,5.93-6.73
		c3.49,0,5.89,2.78,5.89,6.73C155.19,67.19,152.79,69.97,149.29,69.97z"/>
	<path class="st0" d="M176.16,74.52c5.43,0,10.1-4.04,10.1-11.53c0-7.32-4.59-11.24-10.06-11.24c-3.24,0-6.6,3.45-6.6,3.45v-2.82h-5
		v30h4V71.11C170.81,73.21,173.08,74.52,176.16,74.52z M175.11,70.05c-3.16,0-5.64-2.61-5.64-7.07c0-4.21,2.36-6.78,5.64-6.78
		c3.16,0,5.6,2.36,5.6,6.78C180.7,67.49,178.26,70.05,175.11,70.05z"/>
	<path class="st0" d="M189.6,48.38h5v-5h-5V48.38z M189.6,74.38h5v-22h-5V74.38z"/>
	<path class="st0" d="M214.04,74.38h4.76c-0.16-2.68-0.2-3.84-0.2-4.56l0.08-9.72c0.04-6.14-3.55-8.31-8.79-8.31
		c-5,0-8.91,2.9-9.52,7.59h4.92c0.44-2.26,1.94-3.49,4.4-3.49c2.46,0,3.91,1.07,3.91,3.84v0.26l-4.76,0.81
		c-5.53,0.94-9.16,2.51-9.16,7.24c0,4.52,3.75,6.82,7.62,6.82c3.1,0,5.28-1.19,6.65-3.2L214.04,74.38z M204.34,67.53
		c0-2.36,2.74-3.03,9.26-3.87v1.52c0,3.49-2.4,5.26-5.35,5.26C205.98,70.43,204.34,69.42,204.34,67.53z"/>
	<path class="st1" d="M18.78,31.08l-5.83,6.18c1.9,1.92,3.79,3.62,5.65,5.09v10.21c-4.06-2.19-7.9-4.8-11.52-7.52L1.2,51.27
		c6.05,4.63,11.86,8.02,17.39,10.4v15.36l8,2.19V64.58c8.76,2.38,16.8,2.44,24,1.08v21.07l8,2.19V63.13
		c8.31-3.1,15.13-7.99,20.21-12.68l-5.56-5.89c-5.04,4.37-9.92,7.55-14.65,9.74v-8.75c3.31-2.13,6.24-4.67,8.72-7.26l-5.52-5.85
		C43.26,51.63,27.34,39.33,18.78,31.08z M27.6,47.85v7.91c7.11,2.52,14.78,3.44,23,1.5v-7.56C43.82,51.9,36.03,51.96,27.6,47.85z"/>
</g>
</svg>
