<?xml version="1.0" encoding="utf-8"?>
<!-- Generator: Adobe Illustrator 27.0.0, SVG Export Plug-In . SVG Version: 6.00 Build 0)  -->
<svg version="1.1" id="Layer_1" xmlns="http://www.w3.org/2000/svg" xmlns:xlink="http://www.w3.org/1999/xlink" x="0px" y="0px"
	 viewBox="0 0 200 200" style="enable-background:new 0 0 200 200;" xml:space="preserve">
<style type="text/css">
	.st0{fill:#032555;}
</style>
<path class="st0" d="M98.96,181.94c11.06,0,21.68-2.09,31.8-6.49c9.63-4.04,18.49-10.02,26.04-17.64
	c7.56-7.62,13.31-16.37,17.5-26.26c4.32-10.2,6.43-20.91,6.43-32.07s-2.07-21.86-6.43-32.07c-4.18-9.71-9.94-18.64-17.5-26.26
	c-7.38-7.44-16.24-13.43-26.04-17.64c-10.12-4.22-20.87-6.49-31.8-6.49s-21.68,2.09-31.8,6.49c-9.63,4.04-18.49,10.02-26.04,17.64
	c-7.38,7.44-13.31,16.37-17.5,26.26c-4.32,10.2-6.43,20.91-6.43,32.07s2.07,21.86,6.43,32.07c4.18,9.89,9.94,18.64,17.5,26.26
	c7.38,7.44,16.24,13.43,26.04,17.64C77.28,179.81,88.03,181.94,98.96,181.94L98.96,181.94z M98.96,190.2
	c-12.05,0-23.93-2.45-35.04-7.12c-10.61-4.54-20.42-11.16-28.61-19.46c-8.19-8.25-14.8-17.96-19.3-28.85
	C11.43,123.62,9,111.78,9,99.49s2.43-24.13,7.06-35.33c4.5-10.7,11.06-20.59,19.3-28.85c8.19-8.25,17.81-14.92,28.61-19.46
	C75.03,11.13,86.77,8.73,99,8.73s23.93,2.45,35.04,7.12c10.61,4.54,20.42,11.16,28.61,19.46c8.19,8.25,14.8,17.96,19.3,28.85
	c4.68,11.16,7.06,23,7.06,35.33s-2.43,24.13-7.06,35.33c-4.5,10.84-11.06,20.41-19.3,28.85c-8.19,8.25-17.81,14.92-28.61,19.46
	C122.88,187.75,111.19,190.2,98.96,190.2z M97.7,144.84c-11.42-0.63-19.43-4.54-26.36-10.7l6.12-6.3l0.31,0.18
	c6.25,5.17,14.44,8.44,23.79,8.12c14.3-0.63,23.43-8.57,24.92-18.14c1.44-9.71-3.06-18.64-15.92-21.54
	c-3.19-0.63-5.8-0.82-11.06-0.82c-4,0-5.62-0.18-7.56-0.5c-8.82-1.63-11.24-6.3-10.43-12.29c0.81-5.49,6.57-10.7,17.05-11.16
	c7.06-0.32,13.31,2.27,18.31,6.3l2.25,1.77l0.81,0.63l2.88,2.59l17.36-17.82l-2.88-2.9c-0.31-0.32-0.81-0.82-1.62-1.63
	c-8.68-8.12-18.62-13.61-33.1-14.42c-9.31-0.5-18.31,1.32-25.68,4.85c-2.43,1.13-4.68,2.59-6.93,4.22
	c-2.43,1.77-4.81,3.72-6.93,5.85c-1.3,1.32-2.07,2.27-2.56,2.77l6.43,5.17c0,0,0.18-0.18,0.49-0.5c0.49-0.5,0.94-1.13,1.44-1.63
	c1.62-1.63,3.69-3.4,5.8-5.03c1.75-1.32,3.69-2.45,5.8-3.58c5.94-2.9,13.67-4.54,21.54-4.04c11.42,0.63,19.43,4.54,26.36,10.7
	l-6.12,6.3l-0.31-0.18c-6.25-5.17-14.44-8.44-23.79-8.12c-14.3,0.63-23.43,8.57-24.92,18.14c-1.44,10.02,3.37,19.28,17.05,21.73
	c2.56,0.5,4.5,0.5,9,0.5c4.81,0,6.93,0.18,9.49,0.63c8.05,1.77,10.43,6.3,9.49,12.16c-0.81,5.49-6.57,10.7-17.05,11.16
	c-7.06,0.32-13.31-2.27-18.31-6.3l-2.25-1.77l-0.81-0.63L76.92,116l-17.36,17.82l2.88,2.9c0.31,0.32,0.81,0.82,1.62,1.63
	c8.68,8.12,18.62,13.61,33.1,14.42c9.31,0.5,18.31-1.32,25.68-5.03c2.43-1.13,4.68-2.59,6.93-4.22c2.43-1.77,4.81-3.72,6.93-5.85
	c1.3-1.32,2.07-2.27,2.56-2.77l-6.43-5.17c0,0-0.18,0.18-0.49,0.5c-0.49,0.5-0.94,1.13-1.44,1.63c-1.62,1.63-3.69,3.4-5.8,5.03
	c-1.75,1.32-3.69,2.45-5.8,3.58C113.26,143.71,105.7,145.34,97.7,144.84z"/>
</svg>
