<?xml version="1.0" encoding="utf-8"?>
<!-- Generator: Adobe Illustrator 27.0.0, SVG Export Plug-In . SVG Version: 6.00 Build 0)  -->
<svg version="1.1" id="Layer_1" xmlns="http://www.w3.org/2000/svg" xmlns:xlink="http://www.w3.org/1999/xlink" x="0px" y="0px"
	 viewBox="0 0 200 200" style="enable-background:new 0 0 200 200;" xml:space="preserve">
<style type="text/css">
	.st0{fill:#7857ED;}
</style>
<g>
	<g>
		<path class="st0" d="M8.5,110.39h4v-16h6v-4h-16v4h6V110.39z M27.12,106.39h0.38v1.47c-0.03,1.44,2.55,2.53,2.55,2.53h2.45v-3
			h-0.66c-0.75-0.1-1.34-1.13-1.34-1.13v-6.53c0,0-1.51-5.29-6.13-5.29c-4.57,0-6.7,2.13-6.92,4.95h3.65
			c0.11-1.23,1.36-2.18,3.32-2.18c1.63,0,2.9,0.67,2.9,2.05c0,1.05-2.21,1.12-2.21,1.12h-2.5c-2.85,0-5.46,1.25-5.46,4.55
			c0,3,2.17,4.6,4.96,4.6C24.35,109.52,26.2,108.54,27.12,106.39z M20.78,105.07c0-1.19,0.77-2.11,2.6-2.16l1.14-0.05
			c1.58-0.05,2.46-0.52,2.93-1.47h0.05v1.41c0,3.15-2.05,4.46-4.12,4.46C21.55,107.25,20.78,106.26,20.78,105.07z M33.5,110.39h4
			v-21h-4V110.39z M47.74,109.76c3.46,0,5.89-1.93,6.49-4.37h-3.3c-0.44,0.99-1.6,1.83-3.14,1.83c-2.13,0-3.47-1.57-3.58-3.83H54.5
			v-1.58c-0.09-4.49-2.95-6.88-6.78-6.88c-4.03,0-6.9,2.76-6.9,7.41C40.81,106.96,43.6,109.76,47.74,109.76z M43.54,100.39
			c0.22-2.13,1.47-3.79,3.87-3.79c2.38,0,3.71,1.58,3.71,3.79H43.54z M56.5,109.39h4v-7.74c0.13-3.05,1.82-4.17,3.53-4.17
			c1.69,0,2.82,1.11,2.47,3.77v9.15h4v-9.62c0-4.07-2.07-6.19-5.21-6.19c-2.13,0-3.81,1-4.74,2.81H60.5v-2h-4V109.39z M77.73,110.39
			h3.77v-3h-2.41c-1.02,0-1.59-0.53-1.59-1.89v-8.11h4v-2h-4v-4h-3v4h-3v3h3v7.82C73.96,109,77.73,110.39,77.73,110.39z
			 M89.5,110.39h4v-7h5.04c3.86,0,6.63-2.14,6.63-5.97c0-3.8-2.78-6.03-6.63-6.03H89.5V110.39z M93.5,99.39v-6h4.19
			c2.22,0,3.59,1.19,3.59,3.03c0,1.83-1.38,2.97-3.59,2.97H93.5z M106.82,110.39h3.68v-8.49c0-2.42,0.93-3.51,2.97-3.51h2.03v-4
			h-1.16c-2.02,0.52-2.98,1.41-3.71,3h-0.12v-2h-4v15H106.82z M123.73,110.61c4.29,0,7.72-2.88,7.72-8.08
			c0-5.21-3.43-8.08-7.72-8.08c-4.29,0-7.72,2.88-7.72,8.08C116.01,107.73,119.44,110.61,123.73,110.61z M119.75,102.53
			c0-3.52,1.58-5.31,3.99-5.31c2.41,0,3.99,1.8,3.99,5.31c0,3.51-1.58,5.31-3.99,5.31C121.33,107.84,119.75,106.04,119.75,102.53z
			 M138.13,110.39h5.37v-3h-3.41c-1.02,0-1.59-0.53-1.59-1.89v-8.11h4v-2h-4v-4h-4v4h-3v3h3v7.82
			C134.36,109,138.13,110.39,138.13,110.39z M151.09,110.61c4.29,0,7.72-2.88,7.72-8.08c0-5.21-3.43-8.08-7.72-8.08
			c-4.29,0-7.72,2.88-7.72,8.08C143.38,107.73,146.8,110.61,151.09,110.61z M147.11,102.53c0-3.52,1.58-5.31,3.99-5.31
			s3.99,1.8,3.99,5.31c0,3.51-1.58,5.31-3.99,5.31S147.11,106.04,147.11,102.53z M167.98,109.59c3.86,0,6.1-2.47,6.5-5.2h-3.28
			c-0.18,1.07-1.18,2.67-3.22,2.67c-2.19,0-3.63-1.84-3.63-4.84c0-2.82,1.23-4.84,3.63-4.84c2.09,0,3.1,1.48,3.22,3.01h3.28
			c-0.3-3.06-2.52-5.53-6.5-5.53c-4.41,0-7.03,2.9-7.03,7.35C160.95,106.67,163.77,109.59,167.98,109.59z M184.11,110.61
			c4.29,0,7.72-2.88,7.72-8.08c0-5.21-3.43-8.08-7.72-8.08c-4.29,0-7.72,2.88-7.72,8.08C176.39,107.73,179.82,110.61,184.11,110.61z
			 M180.12,102.53c0-3.52,1.58-5.31,3.99-5.31c2.41,0,3.99,1.8,3.99,5.31c0,3.51-1.58,5.31-3.99,5.31
			C181.7,107.84,180.12,106.04,180.12,102.53z M193.5,110.39h4v-21h-4V110.39z"/>
	</g>
</g>
</svg>
