<?xml version="1.0" encoding="utf-8"?>
<!-- Generator: Adobe Illustrator 27.0.0, SVG Export Plug-In . SVG Version: 6.00 Build 0)  -->
<svg version="1.1" id="Layer_1" xmlns="http://www.w3.org/2000/svg" xmlns:xlink="http://www.w3.org/1999/xlink" x="0px" y="0px"
	 viewBox="0 0 200 200" style="enable-background:new 0 0 200 200;" xml:space="preserve">
<style type="text/css">
	.st0{fill:none;}
	.st1{fill:#6A4CCF;}
	.st2{fill:#FEFEFE;}
	.st3{fill:#8B74DA;}
	.st4{fill:#A694E2;}
</style>
<rect x="25" y="41.6" class="st0" width="150" height="150"/>
<g>
	<g>
		<path class="st1" d="M158.8,120.5c0,1.9,0,3.8,0,5.7c-2,5.8-1.5,12.1-4.5,17.8c-7,13.5-17.1,25.2-31.5,28.5
			c-32.3,7.3-58.7,4.5-76.9-29c-4.3-7.8-3.9-16.6-4.3-25.1c-0.4-7.6-0.1-15.1-0.1-22.7c0-6.5,0.7-7.3,7-8.8
			c26.7-6.1,53.6-11,80.3-16.9c7.6-1.7,15.1-3.3,22.7-4.8c2.7-0.5,5.3-1,6.6,2.4c0.1,8.5,0,17,0.1,25.5c0.4,4.5-3,5.2-6.1,6
			c-13.4,3.2-27,5.5-40.5,8.4c-10.1,2.2-20.3,4.2-30.4,6.7c-7.2,1.8-8.6,4.6-6.1,11.6c3.8,10.6,11.8,16.2,22.5,17.4
			c10.1,1.2,18.5-2.9,24.6-11.1c1.9-2.6,3.8-5.5,4.1-8.7c0.6-9.2,6.5-11.8,14.4-12.8c3.9-0.5,7.8-1.6,11.7-2.4
			c2.3-0.5,4.6-0.7,5.8,2.1C158.8,113.6,157.6,117.1,158.8,120.5z"/>
		<path class="st1" d="M64.8,23.8c1.9,0,3.8,0,5.7,0c1.9,1.5,2.5,3.6,2.8,5.9c1,6.3,3.3,7.9,9.8,6.5c12.2-2.5,24.4-4.9,36.5-7.8
			c11.5-2.7,23.2-2.9,34.7-4.7c1.1,0,2.3,0,3.4,0c1.2,8.9,0.3,17.8,0.6,26.7c-0.4,4.6-4.1,4.9-7.4,5.6c-21.6,4.7-43.2,9.2-64.8,13.6
			c-12.4,2.5-24.7,5.4-37.1,7.9c-6.4,1.3-7.4,0.5-7.4-6c0-12.9,0.1-25.8,0-38.7c0-4.7,1.5-7,6.6-7.2C53.7,25.4,59.3,25,64.8,23.8z"
			/>
		<path class="st2" d="M64.8,23.8c-5.9,2.6-12.2,3.1-18.4,4.4c-3.2,0.7-4.3,1.9-4.3,5.2c0.2,12.9,0.1,25.7,0,38.6
			c0,3.4,0.8,3.9,4.2,3.2c36.9-7.9,73.8-15.6,110.7-23.3c0.3-0.1,0.6-0.4,0.9-0.7c0.2-1,0.5-1,1-0.2c0,5.3,0,10.6,0,15.9
			c-0.3,0.8-0.7,0.8-1.2,0.2c-15.1,2.1-29.9,6.1-44.8,9.1C91.2,80.6,69.6,85.3,48,89.7c-4.4,0.9-6.4,2.4-6,7.3
			c0.7,9.4-0.5,18.9,1,28.3c4.4,27.5,27.1,47.7,55.6,49.1c26,1.3,50.7-17.1,57.8-43c0.5-1.9-0.1-4.3,2.4-5.3
			c0,15.7-0.1,31.4,0.1,47.1c0,2.3-0.2,3-2.8,3c-37.5-0.1-75.1-0.1-112.6,0c-2.1,0-2.6-0.5-2.6-2.6C41,124.4,41,75.2,40.9,26
			c0-2.1,0.5-2.3,2.4-2.3C50.4,23.8,57.6,23.8,64.8,23.8z"/>
		<path class="st2" d="M157.7,110.3c-8.1,1.6-16.2,3.2-24.4,4.8c-3.5,0.7-2.8,3.6-3.2,5.8c-2.4,13.3-12.1,22.8-25.8,25.1
			c-11.6,2-24.4-4.5-30.3-15.4c-0.5-1-1-2-1.4-3.1c-4.6-11.4-3.3-13.9,8.5-16.4c24.7-5.3,49.4-10.4,74.1-15.7c0.9-0.2,1.7-0.6,2.6-1
			c0.3-0.9,0.6-0.9,1.1-0.1c0,5.3,0,10.6,0,15.9C158.5,111,158.1,111,157.7,110.3z"/>
		<path class="st2" d="M154.3,23.8c-15.5,3.4-30.9,6.9-46.4,10.2c-9.7,2.1-19.4,4.1-29.2,5.9c-6,1.1-8.2-0.9-8.3-7.1c0-3,0-6,0-9.1
			C98.4,23.8,126.4,23.8,154.3,23.8z"/>
		<path class="st3" d="M158.8,51.1l-0.5,0.2l-0.5,0c0-9.2-0.1-18.3-0.1-27.5c2.2-0.2,1.1,1.6,1.1,2.3
			C158.9,34.4,158.8,42.7,158.8,51.1z"/>
		<path class="st4" d="M158.8,94.3l-0.5,0.1l-0.5-0.1c-0.1-9.1-0.1-18.1-0.2-27.2c0.4-0.1,0.8-0.1,1.2-0.2
			C158.8,76.1,158.8,85.2,158.8,94.3z"/>
		<path class="st4" d="M157.7,110.3c0.4,0,0.8-0.1,1.2-0.1c0,3.4,0,6.8,0,10.2C156.7,117.3,158.2,113.7,157.7,110.3z"/>
	</g>
</g>
</svg>
