<?xml version="1.0" encoding="utf-8"?>
<!-- Generator: Adobe Illustrator 27.0.0, SVG Export Plug-In . SVG Version: 6.00 Build 0)  -->
<svg version="1.1" id="Layer_1" xmlns="http://www.w3.org/2000/svg" xmlns:xlink="http://www.w3.org/1999/xlink" x="0px" y="0px"
	 viewBox="0 0 200 200" style="enable-background:new 0 0 200 200;" xml:space="preserve">
<style type="text/css">
	.st0{fill-rule:evenodd;clip-rule:evenodd;fill:#4C7064;}
</style>
<path class="st0" d="M51.18,34.9L37.94,48.94c4.32,4.36,8.61,8.22,12.83,11.56v23.04c0,0-16.97-10.77-25.09-16.88l-13.2,13.98
	c13.58,10.39,39.88,23.34,39.88,23.34v34.54l17.53,4.8v-32.82c19.78,5.37,37.93,5.51,54.18,2.44v47.35l17.53,4.8v-57.4
	c18.88-7.04,34.37-18.15,45.9-28.8l-12.63-13.38c-11.45,9.93-22.53,17.15-33.28,22.12V67.77c7.52-4.84,14.17-10.61,19.81-16.49
	l-12.54-13.29C106.79,81.58,70.63,53.64,51.18,34.9z M71.49,73.13v17.54c15.76,5.59,32.77,7.63,50.99,3.33V77.23
	C107.45,82.11,90.18,82.24,71.49,73.13z"/>
</svg>
