<svg width="148" height="23" viewBox="0 0 148 23" fill="none" xmlns="http://www.w3.org/2000/svg">
<path d="M33.0278 17.7328C31.6896 17.7328 30.5426 17.5177 29.5868 17.0876C28.607 16.6575 27.8424 16.0839 27.245 15.3671L28.846 13.9333C29.3956 14.5307 29.993 14.9847 30.686 15.2715C31.3551 15.5821 32.1437 15.7494 33.0756 15.7494C33.912 15.7494 34.605 15.606 35.1307 15.3193C35.6325 15.0325 35.8954 14.5785 35.8954 13.9811C35.8954 13.7182 35.8476 13.5032 35.752 13.3359C35.6564 13.1686 35.513 13.0252 35.3458 12.9058C35.1785 12.7863 34.9634 12.7146 34.7484 12.6429C34.5094 12.5712 34.2704 12.5234 34.0076 12.4995L32.0481 12.1889C31.5702 12.1172 31.0922 12.0216 30.5904 11.8782C30.0886 11.7348 29.6585 11.5437 29.2761 11.2569C28.8699 10.9941 28.5593 10.6595 28.3203 10.2533C28.0574 9.84705 27.938 9.32134 27.938 8.67614C27.938 7.40965 28.4159 6.4538 29.3956 5.80861C30.3515 5.16341 31.618 4.82887 33.1951 4.82887C34.3421 4.82887 35.3219 4.99614 36.1821 5.33068C36.9946 5.68913 37.7115 6.16705 38.2611 6.76445L36.8034 8.29381C36.4928 7.93536 36.0387 7.57692 35.4413 7.26627C34.8439 6.95562 34.0793 6.81224 33.0995 6.81224C31.3551 6.81224 30.4948 7.36186 30.4948 8.46108C30.4948 8.98679 30.686 9.34523 31.0683 9.5364C31.4268 9.75147 31.8808 9.87095 32.3826 9.94264L34.3421 10.2533C34.8439 10.325 35.3219 10.4445 35.8237 10.5639C36.3016 10.6834 36.7317 10.8746 37.138 11.1374C37.5203 11.4003 37.831 11.7587 38.0938 12.165C38.3328 12.5712 38.4523 13.0969 38.4523 13.7421C38.4523 14.9847 37.9743 15.9645 37.0185 16.6575C36.0387 17.3743 34.7245 17.7328 33.0278 17.7328Z" fill="url(#paint0_linear)"/>
<path d="M47.4146 17.442C46.3393 17.442 45.5268 17.1552 45.025 16.5578C44.5232 15.9843 44.2603 15.2435 44.2603 14.3116V7.21441H40.4608V5.11155H43.1611C43.6151 5.11155 43.9496 5.01596 44.1408 4.8248C44.332 4.65752 44.4276 4.32298 44.4276 3.84505V0.762452H46.865V5.11155H52.1221V7.21441H46.865V15.3391H52.1221V17.442H47.4146Z" fill="url(#paint1_linear)"/>
<path d="M54.9982 15.3614H58.272V7.23668H54.9982V5.13382H60.8767V8.40759H61.0201C61.1395 7.97746 61.2829 7.57123 61.498 7.16499C61.7131 6.75876 61.9759 6.42421 62.2866 6.11356C62.5972 5.82681 63.0034 5.58785 63.4575 5.39668C63.9115 5.22941 64.4611 5.13382 65.0824 5.13382H66.564V7.61902H64.1266C63.1707 7.61902 62.3821 7.90577 61.7847 8.45538C61.1873 9.02889 60.8767 9.79357 60.8767 10.7494V15.3614H65.3453V17.4642H54.9982V15.3614Z" fill="url(#paint2_linear)"/>
<path d="M76.5603 15.3614H76.4408C76.3214 15.672 76.1541 15.9827 75.9629 16.2694C75.7478 16.5801 75.5089 16.819 75.2221 17.0341C74.9354 17.2492 74.6008 17.4403 74.2185 17.5598C73.8362 17.6793 73.3821 17.751 72.8803 17.751C71.6377 17.751 70.6341 17.3447 69.8694 16.5323C69.1047 15.7198 68.7224 14.5728 68.7224 13.0673V5.13382H71.3271V12.685C71.3271 14.6445 72.1873 15.6242 73.8839 15.6242C74.2185 15.6242 74.553 15.5764 74.8637 15.4808C75.1743 15.4092 75.4611 15.2658 75.724 15.0985C75.9868 14.9312 76.178 14.6923 76.3453 14.4294C76.4886 14.1666 76.5603 13.8559 76.5603 13.4975V5.13382H79.165V17.4642H76.5603V15.3614Z" fill="url(#paint3_linear)"/>
<path d="M88.0978 17.7328C87.1658 17.7328 86.3533 17.5894 85.6365 17.2787C84.8957 16.9681 84.2983 16.538 83.7965 15.9884C83.2946 15.4387 82.8884 14.7458 82.6494 13.9572C82.3866 13.1686 82.2432 12.2606 82.2432 11.2808C82.2432 10.3011 82.3866 9.39303 82.6494 8.60445C82.8884 7.81588 83.2946 7.12289 83.7965 6.57328C84.2983 6.02367 84.8957 5.59354 85.6365 5.28289C86.3533 4.97224 87.1658 4.82887 88.0739 4.82887C89.3404 4.82887 90.3679 5.09172 91.1565 5.64133C91.9212 6.19095 92.4947 6.88393 92.877 7.74419L90.8458 8.84342C90.6308 8.26991 90.2962 7.81588 89.8422 7.48134C89.3882 7.14679 88.7908 6.97952 88.0739 6.97952C87.0941 6.97952 86.3295 7.26627 85.7798 7.86367C85.2302 8.46108 84.9674 9.27355 84.9674 10.2533V12.3084C84.9674 13.2881 85.2302 14.0767 85.7798 14.6741C86.3295 15.2715 87.0941 15.5821 88.1217 15.5821C88.8863 15.5821 89.5076 15.4149 90.0095 15.0564C90.4874 14.698 90.8697 14.22 91.1565 13.6226L93.0682 14.7936C92.6619 15.6538 92.0645 16.3468 91.2521 16.8964C90.4396 17.4699 89.3882 17.7328 88.0978 17.7328Z" fill="url(#paint4_linear)"/>
<path d="M102.006 17.442C100.931 17.442 100.118 17.1552 99.6166 16.5578C99.1148 15.9843 98.8519 15.2435 98.8519 14.3116V7.21441H95.0524V5.11155H97.7527C98.2067 5.11155 98.5413 5.01596 98.7324 4.8248C98.9236 4.65752 99.0192 4.32298 99.0192 3.84505V0.762452H101.457V5.11155H106.714V7.21441H101.457V15.3391H106.714V17.442H102.006Z" fill="url(#paint5_linear)"/>
<path d="M117.529 15.3614H117.41C117.29 15.672 117.123 15.9827 116.932 16.2694C116.717 16.5801 116.478 16.819 116.191 17.0341C115.904 17.2492 115.57 17.4403 115.188 17.5598C114.805 17.6793 114.351 17.751 113.849 17.751C112.607 17.751 111.603 17.3447 110.839 16.5323C110.074 15.7198 109.691 14.5728 109.691 13.0673V5.13382H112.296V12.685C112.296 14.6445 113.156 15.6242 114.853 15.6242C115.188 15.6242 115.522 15.5764 115.833 15.4808C116.143 15.4092 116.43 15.2658 116.693 15.0985C116.956 14.9312 117.147 14.6923 117.314 14.4294C117.458 14.1666 117.529 13.8559 117.529 13.4975V5.13382H120.134V17.4642H117.529V15.3614Z" fill="url(#paint6_linear)"/>
<path d="M123.314 15.3614H126.588V7.23668H123.314V5.13382H129.192V8.40759H129.336C129.455 7.97746 129.599 7.57123 129.814 7.16499C130.029 6.75876 130.292 6.42421 130.602 6.11356C130.913 5.82681 131.319 5.58785 131.773 5.39668C132.227 5.22941 132.777 5.13382 133.398 5.13382H134.88V7.61902H132.442C131.486 7.61902 130.698 7.90577 130.1 8.45538C129.503 9.02889 129.192 9.79357 129.192 10.7494V15.3614H133.661V17.4642H123.314V15.3614Z" fill="url(#paint7_linear)"/>
<path d="M142.528 17.7328C141.596 17.7328 140.736 17.5894 139.995 17.2787C139.254 16.9681 138.609 16.538 138.107 15.9884C137.605 15.4387 137.199 14.7458 136.936 13.9572C136.673 13.1686 136.53 12.2845 136.53 11.3047C136.53 10.325 136.673 9.41692 136.96 8.62835C137.223 7.83978 137.629 7.14679 138.131 6.57328C138.633 6.02367 139.23 5.59354 139.947 5.28289C140.664 4.97224 141.452 4.82887 142.337 4.82887C143.197 4.82887 143.985 4.97224 144.678 5.259C145.371 5.56965 145.969 5.97588 146.471 6.52549C146.972 7.0751 147.355 7.7203 147.618 8.46108C147.88 9.20186 148 10.0382 148 10.9463V11.926H139.158V12.3323C139.158 13.312 139.469 14.1006 140.066 14.698C140.664 15.3193 141.5 15.6299 142.576 15.6299C143.364 15.6299 144.057 15.4626 144.631 15.1042C145.18 14.7697 145.634 14.3156 145.993 13.7421L147.618 15.1759C147.211 15.8928 146.566 16.4902 145.73 16.992C144.87 17.4938 143.794 17.7328 142.528 17.7328ZM142.337 6.81224C141.883 6.81224 141.452 6.88393 141.07 7.05121C140.664 7.21848 140.329 7.43354 140.066 7.7203C139.78 8.03095 139.565 8.36549 139.397 8.77173C139.23 9.17796 139.158 9.60809 139.158 10.086V10.2533H145.348V10.0143C145.348 9.03459 145.085 8.26991 144.535 7.67251C143.985 7.099 143.245 6.81224 142.337 6.81224Z" fill="url(#paint8_linear)"/>
<path fill-rule="evenodd" clip-rule="evenodd" d="M10.6185 0H9.75205L0.439562 5.32472L0 6.08257V16.732L0.439562 17.4899L9.75205 22.8146H10.6185L19.931 17.4899L20.3706 16.732V6.08257L19.931 5.32472L10.6185 0ZM11.4008 13.6553C11.3966 13.9099 11.389 14.179 11.3772 14.4569C11.3737 14.5381 11.3751 14.6209 11.3549 14.701C11.3204 14.839 11.2628 14.9358 11.2001 15.0669C10.9943 15.4974 10.7898 15.7519 10.5918 16.2048C10.5493 16.3021 10.5048 16.3838 10.4934 16.4895C10.4854 16.5629 10.4997 16.6373 10.5192 16.7086C10.5538 16.8356 10.607 16.9204 10.6646 17.0381C10.9139 17.545 11.2281 17.8006 11.3596 18.318C11.3764 18.3846 11.3596 18.4544 11.3596 18.5215V20.3802L17.2125 17.0334C16.843 16.8236 16.4233 16.5753 15.9819 16.2958C15.9139 16.2526 15.8418 16.2136 15.7837 16.1553C15.6811 16.0528 15.6322 15.9549 15.5525 15.8295C15.3186 15.462 15.2381 15.2059 14.986 14.8327C14.8947 14.6974 14.8422 14.5615 14.7027 14.4762C14.5882 14.4059 14.4615 14.4147 14.3283 14.4007C13.6847 14.3325 13.2579 14.5407 12.6696 14.3809C12.6043 14.3627 12.5526 14.3138 12.4948 14.2805L11.4008 13.6553ZM8.96807 13.546C8.66977 13.7131 8.34425 13.8896 7.99927 14.0676C7.92317 14.1071 7.84837 14.1519 7.76421 14.1753C7.61831 14.2154 7.5 14.2118 7.34547 14.2211C6.89659 14.2482 6.60599 14.1956 6.14285 14.2357C5.97254 14.2503 5.81909 14.2315 5.66789 14.3127C5.54328 14.3794 5.47879 14.4975 5.39234 14.6089C4.98145 15.1382 4.90916 15.6405 4.45148 16.0751C4.39922 16.1251 4.32677 16.1465 4.26519 16.1819L2.9668 16.9241L9.01101 20.3802V18.5215C9.01101 18.4544 8.9942 18.3846 9.01101 18.318C9.14244 17.8006 9.45667 17.545 9.70594 17.0381C9.76361 16.9204 9.81675 16.8356 9.85136 16.7086C9.87088 16.6373 9.8852 16.5629 9.87723 16.4895C9.86578 16.3838 9.82128 16.3021 9.77875 16.2048C9.58081 15.7519 9.37625 15.4974 9.1705 15.0669C9.10783 14.9358 9.05021 14.839 9.01565 14.701C8.99556 14.6209 8.99686 14.5381 8.99342 14.4569C8.97984 14.1384 8.97192 13.8328 8.96807 13.546ZM18.625 7.98865C18.2353 8.21246 17.7848 8.4623 17.2957 8.71631C17.2197 8.75586 17.1448 8.8001 17.0611 8.82457C16.9194 8.86621 16.7994 8.86777 16.649 8.88183C16.1587 8.92867 15.8099 8.88599 15.3041 8.95053C15.1942 8.96458 15.0959 8.96927 14.9944 9.01403C14.9229 9.04578 14.8621 9.09679 14.8061 9.15144C14.7085 9.2467 14.6551 9.33934 14.5766 9.45021C14.24 9.92595 14.1485 10.3465 13.7482 10.7244C13.6958 10.7738 13.6235 10.7957 13.5619 10.8311L12.4414 11.4718L13.6921 12.1865C13.7499 12.2198 13.8185 12.2396 13.8669 12.2869C14.3033 12.7127 14.3402 13.1864 14.7254 13.7063C14.8051 13.8136 14.862 13.9276 14.9804 13.9905C15.1248 14.0676 15.2685 14.0436 15.4313 14.054C15.8807 14.0816 16.1426 14.0212 16.5779 14.0363C16.7262 14.0415 16.8356 14.0337 16.976 14.0702C17.0554 14.091 17.1257 14.1332 17.1974 14.1701C17.7346 14.446 18.2212 14.7177 18.625 14.9535V7.98865ZM1.7456 7.93451V14.8436L3.06794 14.0879C3.12951 14.0525 3.18489 14.001 3.25417 13.9812C3.86118 13.8073 4.33062 13.9999 4.9953 13.9145C5.13511 13.8963 5.26955 13.9005 5.3902 13.8271C5.53657 13.7376 5.59846 13.596 5.69751 13.457C5.96707 13.0781 6.06899 12.8007 6.32013 12.4275C6.40653 12.2994 6.46327 12.1953 6.5719 12.0902C6.63462 12.0293 6.71129 11.9877 6.78379 11.9418C7.10265 11.7415 7.41068 11.5556 7.69857 11.387C7.46674 11.2496 7.22268 11.1012 6.97149 10.943C6.9034 10.8998 6.83178 10.8602 6.77276 10.8035C6.6711 10.7057 6.61676 10.6083 6.53494 10.4891C6.26595 10.0977 6.15008 9.79687 5.85792 9.40129C5.79536 9.31644 5.74742 9.23784 5.66206 9.17591C5.60257 9.1327 5.53162 9.10877 5.46042 9.09055C5.33394 9.05828 5.23483 9.06244 5.10502 9.05463C4.54361 9.02132 4.17114 9.16966 3.65881 9.02861C3.59359 9.01039 3.54175 8.96146 3.48397 8.92815L1.7456 7.93451ZM11.4394 2.48019C11.439 2.87941 11.431 3.3286 11.4096 3.8059C11.406 3.8871 11.4078 3.96986 11.3863 4.05001C11.3483 4.19107 11.2872 4.2832 11.2181 4.41593C11.0158 4.8037 10.832 5.00461 10.6338 5.41165C10.5619 5.55895 10.4699 5.67345 10.465 5.83793C10.461 5.97326 10.5314 6.08049 10.5853 6.20385C10.8448 6.80034 11.2387 7.0736 11.3913 7.66697C11.4083 7.73308 11.3913 7.80283 11.3913 7.87049V9.36641L12.3961 8.7923C12.4577 8.7569 12.5132 8.7059 12.5824 8.6856C13.1113 8.53257 13.52 8.66686 14.1007 8.61793C14.236 8.60648 14.343 8.60752 14.4746 8.5716C14.55 8.5513 14.625 8.52477 14.6886 8.47896C14.7787 8.41442 14.8327 8.33218 14.9005 8.24473C15.2126 7.84135 15.3529 7.51915 15.6416 7.11993C15.7301 6.99761 15.7922 6.89508 15.8999 6.7941C15.9636 6.73424 16.0399 6.6926 16.1124 6.64679C16.5705 6.36 17.0059 6.10287 17.3909 5.88322L11.4394 2.48019ZM8.93122 2.48019L2.93484 5.90925L4.64974 6.88935C4.70757 6.92266 4.77601 6.94244 4.82458 6.98929C5.2061 7.35936 5.26752 7.75546 5.58097 8.22235C5.65342 8.33062 5.69985 8.41806 5.79192 8.51071C5.84377 8.56276 5.9005 8.61169 5.96791 8.64084C6.06462 8.683 6.15675 8.68455 6.26152 8.69548C6.75069 8.74649 7.06861 8.69392 7.54237 8.72723C7.68644 8.73712 7.79788 8.73504 7.93389 8.77252C8.0129 8.7949 8.08322 8.83654 8.15474 8.8735C8.44612 9.02392 8.72271 9.17279 8.97927 9.3154V7.87049C8.97927 7.80283 8.96224 7.73308 8.97927 7.66697C9.13193 7.0736 9.52579 6.80034 9.78531 6.20385C9.83919 6.08049 9.90956 5.97326 9.90555 5.83793C9.90066 5.67345 9.80868 5.55895 9.73675 5.41165C9.53854 5.00461 9.35476 4.8037 9.15244 4.41593C9.08342 4.2832 9.02226 4.19107 8.98431 4.05001C8.96276 3.96986 8.96459 3.8871 8.96094 3.8059C8.93955 3.3286 8.93159 2.87941 8.93122 2.48019Z" fill="url(#paint9_linear)"/>
<defs>
<linearGradient id="paint0_linear" x1="-44.1926" y1="18.2517" x2="297.993" y2="-72.1255" gradientUnits="userSpaceOnUse">
<stop stop-color="#620001"/>
<stop offset="0.138236" stop-color="#AA6EE5"/>
<stop offset="0.273661" stop-color="#B0DCFF"/>
<stop offset="0.383042" stop-color="#CAFFFF"/>
<stop offset="0.54451" stop-color="white"/>
<stop offset="0.669518" stop-color="#FDF074"/>
<stop offset="0.804942" stop-color="#FF966B"/>
<stop offset="0.899648" stop-color="#925E8C"/>
<stop offset="1" stop-color="#545C44"/>
</linearGradient>
<linearGradient id="paint1_linear" x1="-44.1926" y1="18.2517" x2="297.993" y2="-72.1255" gradientUnits="userSpaceOnUse">
<stop stop-color="#620001"/>
<stop offset="0.138236" stop-color="#AA6EE5"/>
<stop offset="0.273661" stop-color="#B0DCFF"/>
<stop offset="0.383042" stop-color="#CAFFFF"/>
<stop offset="0.54451" stop-color="white"/>
<stop offset="0.669518" stop-color="#FDF074"/>
<stop offset="0.804942" stop-color="#FF966B"/>
<stop offset="0.899648" stop-color="#925E8C"/>
<stop offset="1" stop-color="#545C44"/>
</linearGradient>
<linearGradient id="paint2_linear" x1="-44.1926" y1="18.2517" x2="297.993" y2="-72.1255" gradientUnits="userSpaceOnUse">
<stop stop-color="#620001"/>
<stop offset="0.138236" stop-color="#AA6EE5"/>
<stop offset="0.273661" stop-color="#B0DCFF"/>
<stop offset="0.383042" stop-color="#CAFFFF"/>
<stop offset="0.54451" stop-color="white"/>
<stop offset="0.669518" stop-color="#FDF074"/>
<stop offset="0.804942" stop-color="#FF966B"/>
<stop offset="0.899648" stop-color="#925E8C"/>
<stop offset="1" stop-color="#545C44"/>
</linearGradient>
<linearGradient id="paint3_linear" x1="-44.1926" y1="18.2517" x2="297.993" y2="-72.1255" gradientUnits="userSpaceOnUse">
<stop stop-color="#620001"/>
<stop offset="0.138236" stop-color="#AA6EE5"/>
<stop offset="0.273661" stop-color="#B0DCFF"/>
<stop offset="0.383042" stop-color="#CAFFFF"/>
<stop offset="0.54451" stop-color="white"/>
<stop offset="0.669518" stop-color="#FDF074"/>
<stop offset="0.804942" stop-color="#FF966B"/>
<stop offset="0.899648" stop-color="#925E8C"/>
<stop offset="1" stop-color="#545C44"/>
</linearGradient>
<linearGradient id="paint4_linear" x1="-44.1926" y1="18.2517" x2="297.993" y2="-72.1255" gradientUnits="userSpaceOnUse">
<stop stop-color="#620001"/>
<stop offset="0.138236" stop-color="#AA6EE5"/>
<stop offset="0.273661" stop-color="#B0DCFF"/>
<stop offset="0.383042" stop-color="#CAFFFF"/>
<stop offset="0.54451" stop-color="white"/>
<stop offset="0.669518" stop-color="#FDF074"/>
<stop offset="0.804942" stop-color="#FF966B"/>
<stop offset="0.899648" stop-color="#925E8C"/>
<stop offset="1" stop-color="#545C44"/>
</linearGradient>
<linearGradient id="paint5_linear" x1="-44.1926" y1="18.2517" x2="297.993" y2="-72.1255" gradientUnits="userSpaceOnUse">
<stop stop-color="#620001"/>
<stop offset="0.138236" stop-color="#AA6EE5"/>
<stop offset="0.273661" stop-color="#B0DCFF"/>
<stop offset="0.383042" stop-color="#CAFFFF"/>
<stop offset="0.54451" stop-color="white"/>
<stop offset="0.669518" stop-color="#FDF074"/>
<stop offset="0.804942" stop-color="#FF966B"/>
<stop offset="0.899648" stop-color="#925E8C"/>
<stop offset="1" stop-color="#545C44"/>
</linearGradient>
<linearGradient id="paint6_linear" x1="-44.1926" y1="18.2517" x2="297.993" y2="-72.1255" gradientUnits="userSpaceOnUse">
<stop stop-color="#620001"/>
<stop offset="0.138236" stop-color="#AA6EE5"/>
<stop offset="0.273661" stop-color="#B0DCFF"/>
<stop offset="0.383042" stop-color="#CAFFFF"/>
<stop offset="0.54451" stop-color="white"/>
<stop offset="0.669518" stop-color="#FDF074"/>
<stop offset="0.804942" stop-color="#FF966B"/>
<stop offset="0.899648" stop-color="#925E8C"/>
<stop offset="1" stop-color="#545C44"/>
</linearGradient>
<linearGradient id="paint7_linear" x1="-44.1926" y1="18.2517" x2="297.993" y2="-72.1255" gradientUnits="userSpaceOnUse">
<stop stop-color="#620001"/>
<stop offset="0.138236" stop-color="#AA6EE5"/>
<stop offset="0.273661" stop-color="#B0DCFF"/>
<stop offset="0.383042" stop-color="#CAFFFF"/>
<stop offset="0.54451" stop-color="white"/>
<stop offset="0.669518" stop-color="#FDF074"/>
<stop offset="0.804942" stop-color="#FF966B"/>
<stop offset="0.899648" stop-color="#925E8C"/>
<stop offset="1" stop-color="#545C44"/>
</linearGradient>
<linearGradient id="paint8_linear" x1="-44.1926" y1="18.2517" x2="297.993" y2="-72.1255" gradientUnits="userSpaceOnUse">
<stop stop-color="#620001"/>
<stop offset="0.138236" stop-color="#AA6EE5"/>
<stop offset="0.273661" stop-color="#B0DCFF"/>
<stop offset="0.383042" stop-color="#CAFFFF"/>
<stop offset="0.54451" stop-color="white"/>
<stop offset="0.669518" stop-color="#FDF074"/>
<stop offset="0.804942" stop-color="#FF966B"/>
<stop offset="0.899648" stop-color="#925E8C"/>
<stop offset="1" stop-color="#545C44"/>
</linearGradient>
<linearGradient id="paint9_linear" x1="-44.1926" y1="18.2517" x2="297.993" y2="-72.1255" gradientUnits="userSpaceOnUse">
<stop stop-color="#620001"/>
<stop offset="0.138236" stop-color="#AA6EE5"/>
<stop offset="0.273661" stop-color="#B0DCFF"/>
<stop offset="0.383042" stop-color="#CAFFFF"/>
<stop offset="0.54451" stop-color="white"/>
<stop offset="0.669518" stop-color="#FDF074"/>
<stop offset="0.804942" stop-color="#FF966B"/>
<stop offset="0.899648" stop-color="#925E8C"/>
<stop offset="1" stop-color="#545C44"/>
</linearGradient>
</defs>
</svg>