<svg width="344" height="33" viewBox="0 0 344 33" fill="none" xmlns="http://www.w3.org/2000/svg">
<g clip-path="url(#clip0_1315_452)">
<path d="M120.776 18.3235H135.844V13.6647H120.776V11.2726H136.087V6.58826H114.602V25.7346H136.264V20.9455H120.776V18.3235Z" fill="white"/>
<path d="M66.8593 13.6109L63.6283 13.5649C59.7128 13.4883 59.1898 12.7369 59.1898 11.9166C59.1898 11.0962 59.5283 10.2682 64.1743 10.2682H64.5898C69.6258 10.2682 70.0103 11.8399 70.1413 12.5682H76.3878V12.3127C76.3878 9.43004 74.3363 6.26624 65.2333 6.26624H63.4563C54.6998 6.26624 52.9918 9.25369 52.9918 12.1134V12.3357C52.9918 15.3257 55.1893 17.7458 62.3668 17.9579L65.6718 18.0346C70.1103 18.1649 70.7103 18.8601 70.7103 19.9641C70.7103 21.0681 70.1183 22.0085 65.0693 22.0085H64.7078C59.7488 22.0085 59.0668 20.1327 59.0023 18.9751H52.7383V19.2817C52.7383 21.8041 53.9228 26.1255 63.9948 26.1255H65.7743C75.4338 26.1255 77.0338 22.8825 77.0338 19.7366V19.3226C77.0338 15.4944 74.0698 13.7413 66.8593 13.6109Z" fill="white"/>
<path d="M155.066 6.58826H147.269L144.192 12.6373L137.553 25.7423H143.669L145.407 22.2335H157.051L158.828 25.7371H165.341L158.313 12.6373L155.066 6.58826ZM147.553 17.912L150.171 12.6373L151.115 10.7334L152.102 12.6424L154.828 17.9171L147.553 17.912Z" fill="white"/>
<path d="M160.643 6.58826V11.9269H169.748V25.7346H175.764V11.9269H184.877V6.58826H160.643Z" fill="white"/>
<path d="M110.027 6.58826L104.043 6.60106L107.153 12.6373L103.355 20.6618L95.676 6.58826L89.5065 6.60106L92.904 13.1689L89.3655 20.6618L81.6445 6.58826H75.4805L85.473 25.7295H92.9555L96.0915 19.2818L99.458 25.7295H106.948L113.304 12.6373L110.027 6.58826Z" fill="white"/>
<path d="M0 10.1226L0.0615405 10.2376V10.0562L0 10.1226Z" fill="white"/>
<path d="M32.1431 0H25.2736L19.8016 5.8548L16.599 0H9.46792L0.0625 10.0562V10.2376L12.4398 32.8671H19.4247L24.8223 27.0891L27.9839 32.8671H35.2329L44.6178 22.8213L32.1431 0ZM16.2784 27.6206L7.20377 11.0273L12.7091 5.14945L21.7812 21.7351L16.2784 27.6206ZM31.92 27.7995L22.8428 11.2113L28.3481 5.33345L37.4227 21.9268L31.92 27.7995Z" fill="white"/>
<path d="M194.45 15.3349H204.822V16.5669H194.45V15.3349ZM194.614 24.4242H206.436V25.6836H193.219V6.51941H206.026V7.77876H194.614V24.4242Z" fill="white"/>
<path d="M220.366 25.8205C218.943 25.8205 217.62 25.5832 216.398 25.1087C215.194 24.6159 214.145 23.9315 213.251 23.0554C212.357 22.1793 211.663 21.1572 211.171 19.9891C210.678 18.8028 210.432 17.5069 210.432 16.1016C210.432 14.6962 210.678 13.4094 211.171 12.2413C211.663 11.055 212.357 10.0238 213.251 9.14772C214.163 8.27162 215.221 7.59632 216.425 7.12177C217.629 6.62897 218.943 6.38257 220.366 6.38257C221.716 6.38257 222.975 6.60162 224.142 7.03962C225.328 7.47767 226.341 8.14387 227.18 9.03817L226.304 9.94162C225.483 9.13857 224.571 8.56367 223.568 8.21687C222.582 7.85182 221.533 7.66932 220.421 7.66932C219.198 7.66932 218.058 7.87922 217 8.29902C215.96 8.71877 215.048 9.31197 214.263 10.0785C213.497 10.8451 212.895 11.7394 212.457 12.7615C212.037 13.7836 211.827 14.897 211.827 16.1016C211.827 17.3062 212.037 18.4195 212.457 19.4416C212.895 20.4637 213.497 21.358 214.263 22.1246C215.048 22.8911 215.96 23.4843 217 23.9041C218.058 24.3239 219.198 24.5338 220.421 24.5338C221.533 24.5338 222.582 24.3604 223.568 24.0136C224.571 23.6486 225.483 23.0554 226.304 22.2341L227.18 23.1375C226.341 24.0319 225.328 24.7072 224.142 25.1635C222.975 25.6015 221.716 25.8205 220.366 25.8205Z" fill="white"/>
<path d="M240.403 25.8205C238.98 25.8205 237.657 25.5832 236.434 25.1087C235.23 24.6159 234.172 23.9315 233.26 23.0554C232.366 22.1611 231.673 21.1299 231.18 19.9618C230.688 18.7754 230.441 17.4887 230.441 16.1016C230.441 14.7144 230.688 13.4368 231.18 12.2687C231.673 11.0824 232.366 10.0512 233.26 9.17507C234.172 8.28077 235.23 7.59632 236.434 7.12177C237.657 6.62897 238.98 6.38257 240.403 6.38257C241.826 6.38257 243.139 6.62897 244.343 7.12177C245.566 7.59632 246.624 8.27162 247.518 9.14772C248.412 10.0238 249.105 11.055 249.598 12.2413C250.108 13.4094 250.364 14.6962 250.364 16.1016C250.364 17.5069 250.108 18.8028 249.598 19.9891C249.105 21.1572 248.412 22.1793 247.518 23.0554C246.624 23.9315 245.566 24.6159 244.343 25.1087C243.139 25.5832 241.826 25.8205 240.403 25.8205ZM240.403 24.5338C241.625 24.5338 242.756 24.3239 243.796 23.9041C244.836 23.4843 245.739 22.8911 246.505 22.1246C247.272 21.358 247.864 20.4637 248.284 19.4416C248.722 18.4195 248.941 17.3062 248.941 16.1016C248.941 14.8787 248.722 13.7654 248.284 12.7615C247.864 11.7394 247.272 10.8451 246.505 10.0785C245.739 9.31197 244.836 8.71877 243.796 8.29902C242.756 7.87922 241.625 7.66932 240.403 7.66932C239.18 7.66932 238.049 7.87922 237.009 8.29902C235.969 8.71877 235.057 9.31197 234.273 10.0785C233.506 10.8451 232.904 11.7394 232.466 12.7615C232.047 13.7654 231.837 14.8787 231.837 16.1016C231.837 17.3062 232.047 18.4195 232.466 19.4416C232.904 20.4637 233.506 21.358 234.273 22.1246C235.057 22.8911 235.969 23.4843 237.009 23.9041C238.049 24.3239 239.18 24.5338 240.403 24.5338Z" fill="white"/>
<path d="M256.027 25.6836V6.51941H257.204L270.86 23.9588H270.23V6.51941H271.626V25.6836H270.477L256.793 8.24421H257.423V25.6836H256.027Z" fill="white"/>
<path d="M287.264 25.8205C285.841 25.8205 284.518 25.5832 283.296 25.1087C282.092 24.6159 281.034 23.9315 280.121 23.0554C279.227 22.1611 278.534 21.1299 278.042 19.9618C277.549 18.7754 277.303 17.4887 277.303 16.1016C277.303 14.7144 277.549 13.4368 278.042 12.2687C278.534 11.0824 279.227 10.0512 280.121 9.17507C281.034 8.28077 282.092 7.59632 283.296 7.12177C284.518 6.62897 285.841 6.38257 287.264 6.38257C288.687 6.38257 290.001 6.62897 291.205 7.12177C292.427 7.59632 293.485 8.27162 294.379 9.14772C295.273 10.0238 295.967 11.055 296.459 12.2413C296.97 13.4094 297.225 14.6962 297.225 16.1016C297.225 17.5069 296.97 18.8028 296.459 19.9891C295.967 21.1572 295.273 22.1793 294.379 23.0554C293.485 23.9315 292.427 24.6159 291.205 25.1087C290.001 25.5832 288.687 25.8205 287.264 25.8205ZM287.264 24.5338C288.486 24.5338 289.618 24.3239 290.657 23.9041C291.697 23.4843 292.6 22.8911 293.367 22.1246C294.133 21.358 294.726 20.4637 295.146 19.4416C295.583 18.4195 295.802 17.3062 295.802 16.1016C295.802 14.8787 295.583 13.7654 295.146 12.7615C294.726 11.7394 294.133 10.8451 293.367 10.0785C292.6 9.31197 291.697 8.71877 290.657 8.29902C289.618 7.87922 288.486 7.66932 287.264 7.66932C286.042 7.66932 284.911 7.87922 283.871 8.29902C282.831 8.71877 281.919 9.31197 281.134 10.0785C280.368 10.8451 279.766 11.7394 279.328 12.7615C278.908 13.7654 278.698 14.8787 278.698 16.1016C278.698 17.3062 278.908 18.4195 279.328 19.4416C279.766 20.4637 280.368 21.358 281.134 22.1246C281.919 22.8911 282.831 23.4843 283.871 23.9041C284.911 24.3239 286.042 24.5338 287.264 24.5338Z" fill="white"/>
<path d="M302.887 25.6836V6.51941H304.063L312.957 21.8781H312.328L321.195 6.51941H322.344L322.371 25.6836H321.003L320.976 8.62746H321.359L312.957 23.1375H312.273L303.845 8.62746H304.255V25.6836H302.887Z" fill="white"/>
<path d="M334.387 25.6836V18.7297L334.715 19.6332L326.67 6.51941H328.202L335.509 18.4286H334.743L342.049 6.51941H343.5L335.454 19.6332L335.782 18.7297V25.6836H334.387Z" fill="white"/>
</g>
<defs>
<clipPath id="clip0_1315_452">
<rect width="343.5" height="33" fill="white"/>
</clipPath>
</defs>
</svg>
