<svg width="236" height="31" viewBox="0 0 236 31" fill="none" xmlns="http://www.w3.org/2000/svg">
<path d="M38.2944 21.0257L41.3816 19.6333C42.282 22.418 44.4687 24.6964 48.199 24.6964C51.672 24.6964 53.6015 23.0509 53.6015 20.6459C53.6015 18.4941 52.0579 17.2283 49.0994 16.5954L45.755 15.836C42.1534 15.0765 39.4521 13.3044 39.4521 9.3805C39.4521 5.45659 42.7965 2.67188 47.8131 2.67188C53.2156 2.67188 55.7882 5.9629 56.4314 8.2413L53.4729 9.63366C52.9584 8.11472 51.4148 5.58317 47.4272 5.58317C44.3401 5.58317 42.5393 7.1021 42.5393 9.3805C42.5393 11.4057 43.8256 12.4184 46.6554 13.0513L49.9998 13.8107C53.9874 14.6968 56.8173 16.9752 56.8173 20.5194C56.8173 24.6964 53.7301 27.6077 47.9417 27.6077C42.7965 27.6077 39.4521 24.823 38.2944 21.0257Z" fill="white"/>
<path d="M68.0081 27.1006V16.9743L59.2612 3.17736H62.9915L67.365 10.2657C68.5227 12.291 68.9085 13.5567 68.9085 15.2023H70.3235C70.3235 13.5567 70.7094 12.1644 71.8671 10.1391L75.9832 3.05078H79.7135L71.2239 16.7212V26.974H68.0081V27.1006Z" fill="white"/>
<path d="M84.2158 27.101V3.17773H89.1038L102.224 23.4302L103.382 22.6707C102.224 20.8986 101.967 19.6329 101.967 16.7216V3.17773H105.054V27.101H101.066L87.1743 5.70929L86.0166 6.46876C86.9171 8.24085 87.303 9.88636 87.303 12.9242V26.9744H84.2158V27.101Z" fill="white"/>
<path d="M112.386 27.101V3.17773H120.618C127.693 3.17773 132.452 7.86112 132.452 15.0761C132.452 22.5442 127.821 27.101 120.489 27.101H112.386ZM115.602 24.1897H119.975C126.149 24.1897 129.108 21.0252 129.108 14.9495C129.108 9.50663 126.149 5.83587 120.232 5.83587H115.602V24.1897Z" fill="white"/>
<path d="M138.369 27.101V3.17773H141.456V27.101H138.369Z" fill="white"/>
<path d="M147.502 14.8234C147.502 7.86157 152.133 2.67188 159.207 2.67188C165.51 2.67188 168.855 6.59579 169.755 9.76024L166.668 10.8994C166.025 8.74761 163.967 5.58317 159.207 5.58317C154.062 5.58317 150.718 9.12735 150.718 14.9499C150.718 20.7725 154.062 24.823 159.207 24.823C163.838 24.823 165.768 22.1649 166.797 19.127L169.884 20.2662C168.726 24.0635 165.253 27.4811 159.207 27.4811C151.618 27.6077 147.502 21.9117 147.502 14.8234Z" fill="white"/>
<path d="M191.108 27.101L188.793 20.5189H177.988L175.544 27.101H172.199L181.332 3.17773H185.577L194.581 27.101H191.108ZM179.017 17.7342H187.764L185.191 10.5193C184.548 8.62058 184.162 7.3548 184.162 5.32956H182.747C182.618 7.3548 182.361 8.62058 181.718 10.5193L179.017 17.7342Z" fill="white"/>
<path d="M202.427 27.101V5.96245H193.809V3.17773H214.519V5.96245H205.514V27.101H202.427Z" fill="white"/>
<path d="M219.021 27.101V3.17773H236V5.96245H222.108V13.1774H232.399V15.9621H222.108V24.1897H236V26.9744H219.021V27.101Z" fill="white"/>
<path d="M30.2792 14.6263L16.5575 14.8601L29.3238 9.81865L28.9274 8.87337L16.3339 14.3417L26.2034 4.79752L25.4817 4.07586L15.9375 13.9352L21.4059 1.35184L20.4606 0.955438L15.4191 13.7217L15.6427 0H14.6263L14.8601 13.7217L9.81865 0.955438L8.87337 1.35184L14.3417 13.9453L4.79752 4.07586L4.07586 4.79752L13.9453 14.3417L1.35184 8.87337L0.955438 9.81865L13.7319 14.8601L0 14.6263V15.6427L13.7319 15.4191L0.955438 20.4606L1.35184 21.4059L13.9453 15.9375L4.07586 25.4817L4.79752 26.2034L14.3417 16.3339L8.87337 28.9274L9.81865 29.3238L14.8601 16.5474L14.6263 30.2792H15.6427L15.4191 16.5474L20.4606 29.3238L21.4059 28.9274L15.9375 16.3339L25.4817 26.2034L26.2034 25.4817L16.3339 15.9375L28.9274 21.4059L29.3238 20.4606L16.5474 15.4191L30.2792 15.6427V14.6263Z" fill="white"/>
</svg>
