<?xml version="1.0" encoding="utf-8"?>
<!-- Generator: Adobe Illustrator 24.0.1, SVG Export Plug-In . SVG Version: 6.00 Build 0)  -->
<svg version="1.1" id="Layer_1" xmlns="http://www.w3.org/2000/svg" xmlns:xlink="http://www.w3.org/1999/xlink" x="0px" y="0px"
	 viewBox="0 0 149.1 52.7" style="enable-background:new 0 0 149.1 52.7;" xml:space="preserve">
<style type="text/css">
	.st0{fill:#2649F5;}
</style>
<title>gcr-loco</title>
<path class="st0" d="M52.3,27.8c0,15.5-10.8,24.9-24.9,24.9C11.4,52.6,0,40.9,0,26.4C-0.1,11.9,11.6,0.1,26.1,0c0.1,0,0.3,0,0.4,0
	c9.7,0,17.9,4.8,22.1,11.6l-9.8,5.6c-2.1-3.3-6.7-5.9-12.4-5.9c-8.5,0-14.9,6.3-14.9,15.2c0,8.6,6.1,14.9,15.9,14.9
	c6.7,0,11.1-3,13-7.8H26.9V23.4h25.4V27.8z"/>
<path class="st0" d="M56.7,26.3C56.7,11.4,67.7,0,82.9,0c8.8-0.1,17,4.3,21.7,11.7l-10,5.8c-2.2-3.9-6.6-6.2-11.7-6.2
	c-9,0-14.8,6-14.8,15s5.8,15,14.8,15c5.1,0,9.5-2.3,11.7-6.2l10,5.8c-4.7,7.5-12.9,12-21.7,11.8C67.7,52.6,56.7,41.2,56.7,26.3z"/>
<path class="st0" d="M127.1,35h-5.5v16.6h-11.6V1h20.2c9.6,0,17.3,7.7,17.4,17.3c0,0,0,0.1,0,0.1c-0.1,6.3-3.7,11.9-9.3,14.7
	l10.8,18.6h-12.4L127.1,35z M121.7,24.9h8.7c3.2,0,5.8-2.8,5.8-6.5s-2.6-6.5-5.8-6.5h-8.7V24.9z"/>
</svg>
